<?xml version="1.0" standalone="no"?>
<!DOCTYPE svg PUBLIC "-//W3C//DTD SVG 20010904//EN"
 "http://www.w3.org/TR/2001/REC-SVG-20010904/DTD/svg10.dtd">
<svg version="1.0" xmlns="http://www.w3.org/2000/svg"
 width="1200.000000pt" height="1200.000000pt" viewBox="0 0 1200.000000 1200.000000"
 preserveAspectRatio="xMidYMid meet">
<metadata>
Created by potrace 1.14, written by Peter Selinger 2001-2017
</metadata>
<g transform="translate(0.000000,1200.000000) scale(0.100000,-0.100000)"
fill="#000000" stroke="none">
<path d="M1917 11844 c-3 -4 -30 -7 -59 -9 -70 -3 -128 -15 -128 -27 0 -5 -4
-6 -10 -3 -5 3 -10 1 -10 -4 0 -6 -7 -11 -15 -11 -8 0 -15 -7 -15 -16 0 -8 -4
-13 -8 -10 -7 4 -66 -79 -67 -94 -1 -11 -29 -55 -38 -62 -6 -3 -12 -13 -13
-20 -1 -8 -18 -40 -38 -71 -20 -31 -34 -57 -31 -57 4 0 -1 -7 -9 -16 -9 -8
-16 -22 -16 -30 0 -8 -4 -14 -10 -14 -5 0 -10 -6 -10 -14 0 -7 -8 -24 -19 -37
-10 -13 -35 -55 -56 -94 -21 -38 -45 -78 -53 -87 -8 -10 -11 -18 -6 -18 5 0 4
-4 -2 -8 -5 -4 -28 -38 -49 -77 -22 -38 -48 -83 -57 -100 -10 -16 -25 -45 -33
-62 -9 -18 -20 -33 -25 -33 -6 0 -10 -6 -10 -13 0 -11 -86 -165 -100 -177 -3
-3 -6 -12 -8 -20 -2 -8 -8 -16 -13 -18 -5 -2 -9 -10 -9 -18 0 -8 -5 -14 -12
-14 -6 0 -8 -3 -5 -6 4 -4 -2 -19 -12 -33 -10 -14 -21 -33 -24 -41 -4 -8 -18
-33 -32 -55 -13 -22 -29 -50 -35 -62 -5 -13 -14 -23 -20 -23 -6 0 -8 -5 -5
-11 4 -5 0 -18 -7 -27 -8 -9 -39 -60 -69 -112 -29 -52 -58 -98 -64 -102 -5 -4
-6 -8 -2 -8 5 0 1 -7 -7 -16 -9 -8 -14 -19 -11 -24 3 -4 -2 -11 -11 -14 -8 -3
-13 -10 -10 -15 3 -5 -1 -14 -9 -21 -8 -7 -15 -18 -15 -25 0 -7 -7 -18 -15
-25 -8 -7 -12 -16 -10 -21 3 -4 -3 -12 -12 -18 -10 -6 -13 -11 -8 -11 7 0 7
-3 0 -8 -10 -7 -48 -72 -70 -119 -5 -13 -13 -23 -17 -23 -5 0 -8 -7 -8 -15 0
-9 -6 -18 -14 -21 -8 -3 -12 -12 -9 -20 3 -8 0 -14 -7 -14 -6 0 -8 -4 -5 -10
3 -5 1 -10 -5 -10 -6 0 -8 -4 -5 -10 3 -5 2 -10 -3 -10 -5 0 -15 -12 -23 -27
-25 -50 -73 -128 -82 -134 -5 -3 -8 -9 -8 -13 1 -12 -13 -41 -26 -54 -7 -7
-13 -19 -13 -26 0 -8 -7 -19 -15 -26 -8 -7 -12 -16 -9 -21 3 -5 0 -9 -5 -9 -6
0 -11 -7 -11 -15 0 -8 -4 -15 -10 -15 -5 0 -10 -6 -10 -13 0 -8 -9 -24 -20
-37 -11 -13 -20 -29 -20 -35 0 -7 -7 -18 -15 -25 -8 -7 -13 -16 -10 -20 2 -4
-4 -15 -15 -25 -11 -10 -17 -22 -14 -26 3 -5 0 -9 -6 -9 -6 0 -9 -4 -6 -9 3
-4 -3 -19 -14 -31 -11 -13 -20 -31 -20 -42 0 -10 -4 -18 -8 -18 -5 0 -8 -12
-7 -27 1 -16 -2 -34 -8 -40 -6 -9 -6 -13 1 -13 6 0 9 -6 6 -14 -3 -8 -1 -17 5
-20 6 -4 8 -13 4 -21 -3 -8 -1 -15 5 -15 5 0 12 -10 16 -23 3 -13 17 -40 30
-60 14 -20 23 -37 20 -37 -3 0 4 -12 15 -26 12 -15 21 -33 21 -40 0 -8 5 -14
10 -14 6 0 10 -5 10 -11 0 -6 9 -24 21 -40 11 -16 18 -29 14 -29 -3 0 3 -10
14 -22 11 -11 18 -25 15 -30 -3 -4 0 -8 5 -8 6 0 11 -5 11 -12 0 -6 12 -27 27
-46 15 -20 20 -32 12 -27 -8 4 -4 -3 9 -17 12 -13 22 -29 22 -35 0 -6 7 -16
15 -23 8 -7 12 -16 9 -21 -3 -5 0 -9 5 -9 6 0 11 -6 11 -13 0 -7 8 -22 18 -33
20 -21 21 -23 29 -54 3 -11 10 -20 15 -20 5 0 6 -4 3 -10 -3 -5 -1 -10 4 -10
6 0 11 -6 11 -13 0 -7 9 -23 20 -35 12 -12 18 -22 15 -22 -4 0 2 -12 13 -27
11 -16 30 -49 42 -75 12 -27 26 -48 31 -48 5 0 9 -5 9 -10 0 -6 11 -28 25 -50
14 -22 23 -40 20 -40 -3 0 3 -10 15 -22 11 -12 20 -25 20 -29 0 -5 14 -32 31
-61 18 -29 43 -73 57 -98 14 -25 30 -48 36 -52 6 -4 8 -8 4 -8 -4 0 9 -28 30
-62 20 -35 44 -75 51 -90 8 -16 18 -28 23 -28 4 0 8 -7 8 -15 0 -9 18 -43 40
-76 22 -33 40 -67 40 -75 0 -8 5 -14 10 -14 6 0 10 -7 10 -15 0 -8 5 -15 11
-15 5 0 7 -4 4 -10 -3 -5 -1 -10 4 -10 6 0 11 -6 11 -14 0 -8 6 -21 13 -28 6
-7 19 -26 27 -43 8 -16 17 -32 20 -35 7 -7 48 -80 68 -120 9 -19 19 -37 22
-40 3 -3 30 -48 60 -100 29 -52 58 -98 63 -101 5 -3 8 -9 8 -13 -2 -7 29 -69
38 -76 3 -3 16 -23 28 -45 21 -39 48 -89 75 -136 7 -13 15 -26 18 -29 12 -10
61 -100 55 -100 -3 0 3 -10 14 -22 11 -11 18 -25 15 -30 -3 -4 -1 -8 5 -8 5 0
12 -8 15 -18 10 -31 69 -89 111 -109 32 -16 60 -19 148 -19 65 1 107 -3 107
-9 0 -7 3 -7 8 0 8 12 132 14 132 2 0 -4 5 -5 11 -2 16 11 69 12 69 2 0 -4 5
-5 11 -1 16 9 709 11 709 1 0 -5 6 -5 13 0 18 11 40 13 52 3 6 -5 16 -5 24 -1
7 4 32 7 56 5 48 -4 95 9 95 26 0 12 71 77 78 72 3 -2 8 1 12 8 4 6 19 13 35
16 16 3 33 8 39 12 17 10 35 11 42 1 3 -5 12 -5 23 1 10 5 21 7 24 4 3 -3 12
-2 19 2 13 9 18 10 38 13 6 0 10 7 10 15 0 14 -33 24 -110 33 -25 3 -53 9 -62
14 -9 5 -21 8 -25 7 -4 -1 -18 3 -29 10 -12 6 -24 8 -28 5 -3 -3 -6 -1 -6 6 0
7 -6 11 -14 8 -7 -3 -17 -2 -22 2 -5 4 -29 14 -54 21 -25 8 -48 18 -51 23 -3
4 -12 10 -20 12 -38 9 -59 18 -59 27 0 5 -4 7 -9 4 -5 -3 -14 1 -21 9 -7 8
-17 15 -23 15 -16 0 -115 49 -122 60 -4 6 -11 8 -16 5 -5 -4 -9 -2 -9 2 0 9
-55 45 -65 43 -4 -1 -15 10 -26 24 -11 15 -26 26 -32 26 -7 0 -18 9 -25 20 -6
11 -31 32 -55 47 -43 27 -197 176 -197 190 0 5 -9 14 -20 21 -11 7 -20 19 -20
27 0 8 -9 30 -20 50 -11 19 -17 35 -15 35 3 0 -4 19 -16 43 -12 23 -21 42 -20
42 2 0 0 17 -4 38 -4 20 -10 37 -14 37 -4 0 -8 8 -9 18 -2 21 -7 42 -15 62 -9
24 -19 72 -23 110 -3 19 -7 42 -11 50 -4 8 -8 35 -9 60 -1 25 -3 47 -4 50 -1
3 -2 8 -1 13 1 4 2 25 3 47 1 21 5 37 11 33 5 -3 4 4 -2 16 -9 16 -9 26 0 42
8 15 8 19 0 15 -18 -11 -13 -1 12 26 19 21 79 42 103 38 4 -1 10 3 14 9 3 6
17 13 29 16 13 2 28 8 35 13 23 19 62 -8 57 -40 0 -5 4 -8 10 -8 11 0 8 -149
-6 -222 -9 -52 8 -48 35 6 25 52 39 134 33 185 -3 20 -5 45 -4 55 0 21 -27 76
-44 89 -13 10 -115 6 -115 -5 0 -4 -9 -8 -19 -8 -11 0 -22 -4 -26 -9 -4 -7
-80 -38 -115 -46 -44 -11 -68 -18 -80 -22 -8 -3 -24 -7 -35 -8 -11 -2 -32 -7
-46 -13 -15 -6 -30 -8 -33 -5 -3 3 -11 1 -18 -4 -7 -6 -32 -14 -55 -18 -43 -7
-43 -7 -43 24 0 17 5 31 11 31 5 0 8 3 5 8 -2 4 4 25 14 47 11 22 19 44 20 48
0 4 5 13 10 20 6 7 25 35 43 62 17 28 58 76 91 107 l59 57 2 75 c3 79 21 172
36 181 4 3 6 12 2 20 -3 9 0 22 7 30 7 8 10 15 6 15 -4 0 0 13 9 30 8 16 15
32 15 35 -1 21 88 176 130 228 49 60 94 107 102 107 5 0 20 12 33 26 14 15 25
23 25 19 0 -5 11 2 25 15 14 13 25 21 25 17 0 -3 26 6 58 20 31 14 67 25 80
25 12 -1 22 2 22 6 0 4 12 9 26 10 14 1 31 5 37 9 15 10 290 11 297 2 3 -4 21
-9 40 -12 19 -3 51 -11 70 -17 19 -6 43 -13 54 -15 10 -2 24 -9 30 -15 7 -5
16 -7 19 -3 4 3 13 0 22 -7 8 -7 15 -9 15 -5 0 4 6 2 13 -4 8 -6 17 -8 20 -4
4 3 7 2 7 -4 0 -5 16 -9 35 -9 19 1 35 5 35 9 0 5 4 6 9 2 5 -3 12 -1 16 5 4
6 10 8 15 5 5 -3 18 -1 28 4 10 6 38 11 61 12 23 2 44 5 46 8 4 8 481 5 525
-3 29 -5 101 -12 193 -19 9 -1 17 -4 17 -7 0 -3 12 -6 28 -7 49 -1 53 -3 46
-15 -6 -10 -4 -10 7 -2 15 11 24 11 49 2 39 -15 50 -17 50 -7 0 7 10 5 24 -4
13 -9 40 -17 60 -19 20 -1 36 -6 36 -11 0 -5 11 -7 25 -5 14 3 25 1 25 -3 0
-5 7 -6 15 -3 8 4 21 2 28 -4 11 -9 59 -21 95 -24 6 -1 12 -5 12 -9 0 -4 8 -7
18 -7 9 0 49 -11 87 -25 64 -23 107 -36 144 -43 8 -1 17 -8 21 -14 4 -7 10
-11 14 -10 4 1 20 -3 36 -9 17 -5 32 -9 34 -8 2 1 14 -7 26 -18 12 -11 23 -19
24 -17 4 10 167 -65 178 -82 4 -6 8 -7 8 -2 0 5 8 2 18 -6 15 -13 52 -31 60
-29 1 1 11 -8 22 -19 11 -11 27 -20 35 -20 8 0 15 -4 15 -8 0 -24 128 -92 180
-97 8 0 25 -4 37 -8 12 -4 31 -10 42 -12 55 -10 117 -93 112 -148 -2 -25 -61
-104 -61 -83 0 4 -7 0 -16 -8 -8 -9 -23 -16 -33 -16 -10 0 -21 -3 -25 -7 -3
-4 -15 -8 -26 -10 -10 -1 -38 -9 -62 -18 -24 -8 -53 -15 -65 -15 -12 0 -24 -4
-27 -9 -3 -5 -20 -11 -38 -14 -47 -7 -84 -16 -112 -27 -13 -5 -27 -6 -30 -3
-3 4 -6 1 -6 -6 0 -7 -5 -9 -10 -6 -6 4 -17 1 -25 -5 -8 -7 -15 -9 -15 -4 0 4
-10 -2 -23 -14 -13 -12 -27 -19 -30 -15 -4 3 -7 2 -7 -4 0 -5 -10 -21 -21 -34
-12 -13 -35 -44 -50 -68 -16 -25 -29 -41 -29 -36 0 4 -18 -18 -41 -51 -22 -32
-48 -65 -57 -72 -9 -6 -13 -12 -9 -12 4 0 -9 -16 -28 -35 -20 -19 -35 -37 -34
-41 3 -8 -270 -284 -281 -284 -4 0 -24 -15 -44 -34 -20 -19 -45 -38 -56 -41
-11 -3 -20 -10 -20 -14 0 -4 -11 -13 -25 -19 -27 -13 -34 -32 -10 -32 18 0 89
32 93 43 2 4 9 7 14 7 6 0 35 18 63 39 29 22 55 37 59 34 3 -4 6 1 6 11 0 9 4
15 9 11 6 -3 13 1 18 8 4 7 26 26 48 43 22 16 46 37 53 47 7 9 16 16 20 14 4
-2 17 7 29 20 12 13 21 23 19 23 -2 0 22 25 52 55 30 30 59 55 64 55 4 0 8 6
8 14 0 8 10 22 22 30 12 9 18 16 13 16 -5 0 1 7 13 16 12 8 22 21 22 28 0 7
11 22 25 32 14 10 25 22 25 27 0 10 65 98 98 133 20 20 52 18 52 -4 0 -10 3
-22 7 -26 26 -26 44 -314 22 -356 -10 -18 -23 -90 -20 -107 1 -7 -3 -13 -8
-13 -6 0 -8 -7 -5 -15 4 -8 1 -22 -6 -30 -7 -8 -9 -15 -6 -15 4 0 2 -8 -3 -19
-6 -10 -13 -32 -16 -50 -3 -17 -16 -55 -29 -84 -60 -131 -69 -152 -69 -157 1
-7 -60 -84 -69 -88 -5 -2 -8 -10 -8 -17 0 -7 -7 -16 -16 -19 -8 -3 -12 -10 -9
-16 3 -5 3 -10 -2 -10 -4 -1 -24 -23 -43 -50 -19 -28 -43 -53 -53 -56 -10 -3
-16 -8 -14 -11 3 -2 -13 -21 -36 -41 -23 -20 -46 -43 -50 -49 -4 -7 -14 -13
-21 -13 -7 0 -22 -11 -34 -25 -12 -14 -29 -25 -37 -25 -8 0 -15 -4 -15 -8 0
-19 -187 -132 -216 -132 -8 0 -14 -5 -14 -11 0 -5 -4 -8 -9 -5 -5 4 -11 1 -13
-4 -2 -6 -11 -12 -20 -13 -9 -2 -23 -9 -32 -16 -9 -7 -16 -10 -16 -6 0 4 -11
0 -24 -8 -13 -9 -36 -18 -50 -21 -14 -3 -31 -8 -38 -13 -7 -4 -16 -8 -20 -9
-5 -1 -9 -2 -10 -4 -2 -1 -11 -3 -20 -5 -9 -2 -32 -8 -50 -14 -32 -11 -33 -12
-35 -73 0 -35 -4 -80 -8 -102 -4 -24 -3 -41 4 -45 5 -4 133 -7 284 -6 217 0
277 3 290 14 10 7 17 10 17 7 0 -4 20 12 43 36 24 24 42 46 40 51 -2 4 1 7 7
7 6 0 8 4 5 10 -3 6 -1 10 5 10 7 0 9 7 6 16 -3 8 -2 13 2 10 5 -3 19 17 33
44 13 27 27 50 32 50 4 0 7 7 7 15 0 9 8 24 18 35 9 10 30 45 47 77 16 32 32
60 35 63 3 3 14 22 23 43 10 20 22 37 27 37 6 0 10 9 10 19 0 11 4 22 9 26 6
3 20 26 32 50 12 25 26 45 30 45 4 0 10 14 14 30 4 17 10 30 15 30 4 0 11 8
14 18 10 28 38 76 53 90 7 8 11 18 8 23 -4 5 -2 9 3 9 6 0 20 19 31 43 22 42
49 90 89 157 11 19 33 58 47 85 15 28 34 58 43 68 8 9 12 17 7 17 -4 0 4 15
17 33 13 17 27 40 31 50 3 9 11 17 17 17 6 0 9 4 5 9 -3 6 11 35 30 65 20 31
39 64 42 74 4 9 18 32 31 50 13 17 20 32 16 32 -5 0 0 7 10 15 11 8 16 15 11
15 -4 0 -1 8 8 18 8 9 15 19 15 22 -1 3 11 24 25 47 15 24 27 47 27 52 0 5 6
16 13 23 7 7 24 34 37 61 13 26 27 47 32 47 4 0 8 7 8 15 0 8 5 15 11 15 5 0
8 4 4 9 -3 5 2 16 10 25 9 8 16 18 15 21 -1 21 1 27 7 22 6 -7 33 44 32 60 -1
3 3 9 8 12 9 7 17 20 69 111 21 36 42 68 48 72 6 4 7 8 2 8 -5 0 -1 9 9 20 10
11 15 20 11 20 -4 0 7 20 24 45 17 25 27 45 23 45 -4 0 -3 4 3 8 12 8 94 150
94 163 0 5 4 9 9 9 5 0 13 10 17 23 4 12 9 24 13 27 6 5 13 17 68 117 49 88
51 161 8 248 -17 33 -38 67 -47 76 -10 9 -15 19 -11 23 3 3 1 6 -6 6 -7 0 -10
4 -6 9 3 5 1 12 -5 16 -5 3 -19 26 -30 51 -11 24 -25 44 -30 44 -6 0 -10 7
-10 16 0 8 -11 32 -25 52 -14 20 -25 42 -25 49 0 7 -4 13 -10 13 -5 0 -10 7
-10 15 0 8 -5 15 -11 15 -5 0 -7 5 -4 10 3 6 1 10 -4 10 -6 0 -11 4 -11 9 0 5
-20 44 -45 85 -25 42 -45 81 -45 85 0 5 -3 11 -7 13 -5 2 -19 23 -32 48 -14
25 -27 47 -30 50 -10 9 -31 49 -31 60 0 5 -7 18 -17 29 -9 11 -31 46 -48 78
-63 114 -89 158 -95 163 -3 3 -11 16 -18 30 -6 14 -20 39 -30 55 -9 17 -33 57
-51 90 -19 33 -39 63 -45 67 -6 4 -7 8 -3 8 5 0 -1 13 -12 29 -12 16 -21 34
-21 40 0 6 -4 11 -10 11 -5 0 -10 6 -10 14 0 8 -7 22 -16 30 -8 9 -12 16 -7
16 4 0 -1 7 -12 16 -11 8 -19 16 -18 17 6 5 -10 47 -18 47 -5 0 -9 7 -9 15 0
8 -4 15 -10 15 -5 0 -10 7 -10 15 0 8 -4 15 -10 15 -5 0 -7 7 -4 15 4 8 2 15
-4 15 -5 0 -15 14 -22 31 -7 17 -18 36 -24 42 -6 7 -27 41 -46 77 -18 36 -40
71 -47 78 -7 7 -16 24 -19 38 -3 13 -10 24 -14 24 -4 0 -10 8 -14 18 -7 22
-28 55 -41 64 -5 4 -6 10 -3 14 4 3 -2 15 -13 27 -10 11 -19 27 -19 34 0 7 -5
13 -11 13 -5 0 -8 4 -5 9 3 5 -1 14 -9 21 -8 7 -15 19 -15 26 0 8 -3 14 -8 14
-4 0 -13 13 -20 30 -7 16 -24 45 -37 64 -13 19 -21 37 -17 40 3 3 0 6 -6 6 -7
0 -12 7 -12 15 0 8 -5 15 -11 15 -5 0 -8 4 -5 9 3 5 -1 14 -9 21 -8 7 -12 16
-9 21 3 5 1 9 -4 9 -5 0 -15 14 -22 30 -7 17 -17 30 -23 30 -6 0 -7 3 -4 7 4
3 3 11 -2 17 -5 6 -24 38 -42 71 -18 33 -39 66 -46 73 -7 8 -11 18 -8 23 4 5
1 9 -4 9 -6 0 -11 5 -11 10 0 16 -80 91 -90 85 -4 -3 -10 1 -13 9 -3 7 -18 12
-36 11 -17 -1 -31 1 -31 4 0 3 -660 6 -1468 6 -807 0 -1472 3 -1478 7 -6 4
-14 5 -17 2z"/>
<path d="M7054 8819 c-85 -8 -132 -37 -182 -115 -23 -35 -42 -68 -42 -74 0 -5
-4 -10 -9 -10 -8 0 -24 -37 -22 -52 1 -5 -3 -8 -9 -8 -6 0 -10 -7 -10 -15 0
-8 -4 -15 -10 -15 -5 0 -10 -6 -10 -14 0 -8 -6 -21 -13 -28 -7 -7 -21 -30 -30
-50 -10 -21 -23 -38 -29 -38 -6 0 -8 -3 -5 -7 4 -3 -2 -20 -12 -37 -19 -31
-40 -68 -90 -156 -13 -25 -29 -48 -34 -51 -5 -3 -8 -9 -8 -12 0 -4 -9 -22 -20
-41 -11 -20 -21 -39 -22 -43 0 -4 -7 -14 -14 -21 -7 -7 -13 -19 -13 -27 0 -7
-4 -15 -8 -17 -5 -1 -22 -28 -39 -58 -17 -30 -53 -95 -82 -143 -28 -49 -51
-93 -51 -98 0 -6 -4 -7 -10 -4 -5 3 -10 0 -10 -8 0 -18 -49 -107 -59 -107 -4
0 -8 -6 -8 -13 0 -6 -12 -31 -26 -54 -15 -24 -27 -46 -27 -51 0 -4 -9 -18 -20
-30 -12 -12 -18 -22 -15 -22 3 0 -6 -18 -20 -40 -14 -22 -25 -44 -25 -50 0 -5
-4 -10 -10 -10 -5 0 -10 -6 -10 -13 0 -7 -9 -23 -20 -35 -11 -12 -21 -25 -22
-29 -5 -25 -24 -63 -30 -63 -4 0 -8 -6 -8 -14 0 -8 -3 -16 -7 -18 -9 -3 -36
-52 -78 -135 -15 -29 -31 -53 -36 -53 -5 0 -9 -7 -9 -15 0 -8 -5 -15 -11 -15
-5 0 -8 -4 -5 -8 3 -5 -2 -18 -12 -28 -9 -11 -18 -26 -20 -34 -2 -8 -10 -20
-17 -26 -8 -6 -12 -13 -10 -16 3 -3 -7 -22 -21 -43 -14 -21 -30 -48 -35 -59
-5 -12 -20 -39 -34 -61 -14 -22 -28 -48 -31 -57 -4 -10 -11 -18 -17 -18 -6 0
-8 -3 -4 -6 3 -4 -7 -26 -23 -49 -16 -23 -26 -45 -23 -49 4 -3 1 -6 -5 -6 -7
0 -12 -7 -12 -15 0 -8 -5 -15 -11 -15 -5 0 -7 -4 -4 -10 3 -5 1 -10 -4 -10 -6
0 -11 -7 -11 -15 0 -7 -8 -19 -17 -24 -10 -6 -14 -11 -10 -11 8 0 -38 -88 -52
-100 -3 -3 -14 -21 -23 -40 -23 -48 -62 -114 -69 -120 -9 -7 -33 -91 -32 -110
2 -35 8 -75 13 -80 3 -3 16 -27 30 -55 14 -27 27 -52 31 -55 3 -3 19 -30 35
-60 16 -30 32 -57 37 -58 4 -2 5 -8 1 -13 -3 -5 -1 -9 4 -9 5 0 19 -22 32 -50
13 -27 27 -50 32 -50 5 0 6 -4 3 -10 -3 -5 -2 -10 3 -10 6 0 18 -20 29 -45 10
-25 21 -45 26 -45 4 0 7 -7 7 -15 0 -8 5 -15 10 -15 6 0 10 -4 10 -9 0 -5 22
-47 50 -93 27 -45 57 -100 66 -120 9 -21 20 -38 26 -38 5 0 6 -4 3 -10 -3 -5
-1 -10 4 -10 6 0 11 -7 11 -15 0 -8 3 -15 8 -15 4 0 13 -15 21 -33 8 -17 21
-40 29 -49 8 -10 12 -18 8 -18 -4 0 -2 -6 4 -12 32 -36 106 -177 101 -193 -1
-5 1 -7 5 -3 7 8 61 -77 62 -96 0 -5 4 -12 9 -15 6 -3 24 -31 40 -62 17 -32
38 -68 47 -81 9 -14 13 -28 9 -31 -3 -4 2 -7 12 -7 10 0 16 -3 12 -6 -3 -3 8
-27 24 -54 16 -26 29 -52 29 -59 0 -6 4 -11 9 -11 5 0 11 -8 15 -17 3 -10 13
-32 23 -48 10 -17 31 -53 47 -80 16 -28 33 -53 38 -56 6 -3 10 -9 10 -12 0
-19 12 -47 20 -47 5 0 6 -4 3 -10 -3 -5 -1 -10 4 -10 6 0 11 -4 11 -10 0 -5
16 -34 35 -64 19 -29 31 -56 28 -60 -4 -3 -2 -6 3 -6 5 0 21 -21 34 -47 14
-27 28 -50 31 -53 7 -6 74 -123 74 -130 0 -3 13 -24 28 -47 15 -24 27 -45 27
-48 0 -3 9 -15 20 -27 11 -12 20 -30 20 -40 0 -10 4 -18 9 -18 5 0 11 -8 14
-17 6 -18 48 -94 57 -103 5 -5 37 -62 54 -97 6 -13 14 -23 19 -23 4 0 7 -7 7
-15 0 -8 6 -23 14 -32 8 -10 27 -33 42 -52 15 -18 48 -42 73 -53 44 -19 72
-20 626 -19 651 0 696 1 675 8 -8 2 -22 7 -30 10 -8 3 -24 8 -35 9 -11 2 -40
12 -65 21 -25 10 -48 16 -52 15 -5 -1 -8 3 -8 8 0 6 -8 10 -18 10 -10 0 -28 9
-40 20 -12 11 -24 19 -26 18 -3 -2 -14 5 -26 14 -11 10 -20 16 -20 13 0 -9
-42 28 -112 98 -37 37 -68 72 -68 76 0 5 -6 16 -12 23 -14 15 -34 47 -55 89
-7 15 -20 32 -28 39 -8 7 -12 16 -9 21 3 5 1 9 -4 9 -11 0 -85 160 -78 168 4
3 0 15 -8 27 -8 12 -13 31 -12 41 2 10 -1 22 -6 25 -5 3 -10 12 -12 20 -1 8
-5 28 -9 44 -11 48 -19 106 -21 160 -2 28 -6 61 -10 75 -4 14 -9 61 -12 105
-2 44 -7 98 -9 120 -9 74 -6 436 4 473 6 20 10 46 10 57 0 18 7 60 11 60 1 0
3 29 4 63 2 35 7 67 12 70 5 4 10 16 11 27 2 29 7 48 16 63 5 6 5 17 2 22 -3
6 -2 10 3 10 9 0 25 36 23 52 0 4 10 31 23 60 34 79 39 91 43 113 2 11 8 22
13 23 6 2 8 8 5 13 -3 4 1 22 10 39 8 16 12 30 8 30 -4 0 -2 5 5 12 7 7 12 20
12 30 0 10 5 18 11 18 6 0 9 6 7 12 -3 7 1 24 8 37 7 14 11 28 8 33 -3 4 0 8
7 8 7 0 9 3 6 7 -4 3 0 17 9 31 8 13 13 30 10 38 -3 9 -1 12 4 9 6 -4 13 8 16
25 4 17 10 33 15 36 4 2 6 11 2 19 -3 8 0 15 7 15 6 0 9 4 6 9 -3 4 5 30 19
57 13 27 25 56 27 64 2 8 6 18 11 21 4 3 9 15 12 27 2 11 8 29 14 40 6 11 8
22 4 25 -3 4 0 13 6 21 7 8 12 40 11 73 -1 32 -1 68 -1 81 1 12 -4 22 -9 22
-6 0 -10 9 -10 20 0 44 -101 74 -139 41 -18 -15 -19 -20 -7 -24 9 -4 18 -2 21
2 3 5 16 4 30 -2 37 -18 52 -68 43 -144 -1 -7 -5 -13 -10 -13 -5 0 -7 -4 -4
-9 3 -5 -1 -27 -8 -49 -8 -22 -12 -42 -10 -45 2 -2 -2 -10 -11 -17 -8 -7 -15
-20 -15 -29 0 -9 -9 -33 -20 -54 -11 -20 -17 -37 -14 -37 4 0 1 -6 -5 -13 -6
-8 -8 -17 -4 -20 3 -4 1 -7 -6 -7 -7 0 -10 -4 -7 -9 3 -5 -3 -19 -13 -32 -15
-20 -28 -48 -36 -79 -1 -3 -8 -18 -15 -35 -7 -16 -14 -37 -15 -45 0 -8 -8 -31
-17 -50 -14 -32 -29 -67 -33 -80 -1 -3 -7 -25 -14 -50 -7 -25 -17 -54 -21 -65
-5 -11 -16 -46 -26 -78 -9 -31 -19 -55 -22 -53 -2 3 -13 1 -23 -5 -13 -7 -19
-6 -19 2 0 6 -7 8 -16 5 -9 -3 -21 -3 -27 1 -7 4 -14 8 -17 8 -26 4 -76 19
-80 24 -9 11 -49 31 -63 31 -7 0 -23 11 -35 25 -12 14 -26 25 -32 25 -5 0 -10
5 -10 11 0 6 -7 17 -15 26 -8 8 -13 19 -10 24 4 5 -2 9 -11 9 -10 0 -14 3 -11
6 4 4 -3 20 -14 35 -11 16 -18 29 -14 29 3 0 1 9 -5 19 -5 11 -12 47 -15 81
-3 35 -8 67 -11 72 -11 17 -19 236 -10 246 3 2 1 15 -4 28 -5 13 -6 24 -1 24
4 0 11 28 14 63 10 98 16 129 28 143 6 8 9 14 6 14 -4 0 1 19 9 43 9 23 17 47
18 53 1 7 8 20 16 30 8 9 14 20 12 23 -3 8 30 74 41 82 5 3 9 10 8 15 0 5 10
22 22 38 53 70 77 98 77 91 0 -5 10 4 23 18 12 15 28 27 34 27 6 0 14 7 17 16
4 9 9 14 13 10 3 -3 12 3 19 13 14 20 124 87 137 83 4 -1 7 2 7 7 0 5 14 14
30 21 17 7 30 16 30 21 0 5 5 9 11 9 6 0 33 11 60 25 27 13 49 22 49 19 0 -2
9 0 21 6 20 11 53 21 77 22 6 1 12 5 12 9 0 5 7 6 15 3 8 -3 20 -2 27 2 7 5
24 9 38 11 14 1 48 4 75 8 78 10 245 11 245 2 0 -4 4 -6 8 -3 4 2 46 -2 92
-11 47 -8 91 -15 98 -16 6 0 12 -3 12 -7 0 -4 10 -7 23 -6 12 1 32 -4 45 -12
12 -8 22 -11 22 -7 0 4 11 0 25 -9 14 -9 25 -14 25 -10 0 3 11 -1 25 -10 13
-9 31 -16 40 -16 8 0 15 -4 15 -10 0 -5 9 -10 20 -10 11 0 20 -3 20 -7 0 -5
18 -17 40 -27 22 -11 40 -23 40 -28 0 -4 6 -8 13 -8 7 0 29 -15 49 -32 20 -18
54 -49 77 -68 22 -19 41 -41 41 -47 0 -7 9 -18 20 -25 11 -7 20 -18 20 -25 0
-7 5 -13 10 -13 6 0 10 -6 10 -14 0 -8 3 -16 8 -18 12 -5 63 -119 57 -128 -3
-4 -1 -10 5 -12 6 -2 11 -20 12 -41 1 -20 5 -37 9 -37 4 0 6 -8 4 -17 -1 -10
0 -22 3 -28 4 -5 7 -19 8 -30 3 -24 12 -70 20 -105 10 -36 13 -121 5 -116 -4
3 -7 -10 -7 -27 0 -56 -12 -109 -26 -118 -11 -7 -11 -9 1 -9 10 0 10 -5 -3
-25 -9 -14 -15 -29 -12 -33 3 -5 -1 -20 -9 -35 -8 -15 -11 -27 -7 -27 3 0 1
-5 -6 -12 -7 -7 -12 -20 -12 -29 0 -10 -3 -19 -8 -21 -4 -1 -22 -27 -41 -55
-18 -29 -37 -53 -42 -53 -5 0 -9 -8 -9 -18 0 -9 -11 -26 -25 -36 -14 -10 -25
-24 -25 -30 0 -18 -230 -238 -299 -286 -33 -24 -58 -47 -54 -53 3 -6 1 -7 -5
-3 -7 4 -12 2 -12 -3 0 -6 -9 -11 -21 -11 -11 0 -18 -4 -15 -8 2 -4 -7 -16
-22 -26 -15 -10 -44 -39 -64 -63 -21 -24 -38 -42 -38 -39 0 4 -48 -45 -155
-161 -80 -86 -91 -99 -130 -158 -21 -33 -43 -62 -47 -63 -4 -2 -5 -8 -2 -14 3
-5 -3 -19 -13 -31 -18 -19 -32 -47 -33 -62 0 -3 -9 -22 -20 -42 -11 -21 -20
-43 -20 -50 0 -7 -5 -13 -11 -13 -6 0 -9 -6 -6 -12 2 -7 -5 -33 -15 -57 -10
-24 -19 -54 -20 -67 -1 -13 -6 -24 -10 -24 -4 0 -5 -6 -2 -14 5 -14 35 -11 32
2 -1 4 4 21 11 37 7 17 14 35 15 40 3 19 40 75 50 75 5 0 6 3 3 6 -3 4 -1 16
5 28 7 11 11 24 10 29 -1 4 3 7 8 7 6 0 10 6 10 13 0 8 9 22 20 32 10 9 18 20
17 24 -1 3 17 34 41 68 23 34 42 65 42 68 0 3 14 19 30 35 17 17 28 30 24 30
-4 0 3 9 15 19 12 11 22 22 21 26 0 5 42 43 107 95 7 6 17 10 23 10 5 0 10 4
10 10 0 5 3 9 8 8 4 -1 22 6 40 15 17 10 32 15 32 12 0 -4 12 0 28 9 55 29
156 67 176 65 5 0 12 4 15 9 7 12 94 42 121 42 10 0 22 5 25 10 3 6 19 10 35
10 16 0 31 4 35 9 3 6 14 8 25 6 11 -2 22 1 25 6 4 5 11 7 16 4 5 -4 15 -3 21
1 7 5 26 9 43 9 57 3 66 5 62 13 -3 4 19 6 49 6 30 -1 54 1 54 5 0 3 37 6 83
5 45 0 88 4 95 9 7 5 12 6 12 0 0 -10 67 -10 92 1 9 4 31 9 48 10 34 2 100 55
100 80 0 8 7 17 16 20 8 3 12 10 9 16 -3 5 -2 10 3 10 5 0 13 19 17 43 4 23
10 49 12 57 2 8 5 26 8 40 2 14 4 25 5 25 1 0 3 12 4 28 1 15 -2 27 -6 27 -4
0 -8 7 -8 15 0 8 -4 15 -10 15 -5 0 -10 7 -10 16 0 8 -4 12 -10 9 -5 -3 -10 0
-10 9 0 8 -3 16 -7 18 -15 6 -64 78 -80 116 -17 40 -22 190 -6 201 5 3 9 13 8
21 0 17 37 60 52 60 6 0 15 6 21 13 11 13 56 14 87 1 29 -12 65 -46 65 -61 0
-8 4 -12 8 -9 4 2 9 -5 9 -16 1 -12 8 -25 15 -29 7 -5 9 -9 4 -9 -5 0 -3 -7 4
-15 6 -8 10 -18 7 -22 -3 -4 7 -23 22 -40 l27 -33 39 34 c21 19 42 33 47 30 4
-3 8 0 8 7 0 7 3 9 7 6 3 -4 12 -2 19 4 8 6 21 9 29 5 8 -3 15 -2 15 3 0 14
39 20 44 7 3 -7 5 -7 5 2 1 8 6 10 14 5 20 -13 41 -13 70 -2 l27 11 0 159 c0
88 0 162 -1 166 0 4 8 10 18 14 24 9 70 -16 78 -41 4 -11 11 -18 16 -15 5 4 9
-1 9 -9 0 -9 5 -16 10 -16 6 0 10 -10 10 -23 0 -13 8 -32 18 -43 18 -21 22
-32 23 -67 1 -26 -8 -110 -16 -150 -6 -29 12 -57 37 -57 8 0 24 -9 36 -20 12
-11 26 -20 32 -20 6 0 8 -4 5 -10 -3 -5 0 -10 7 -10 22 -1 52 -33 75 -80 29
-59 34 -84 37 -170 1 -46 6 -74 15 -79 7 -5 12 -12 10 -16 -1 -4 13 -23 30
-41 18 -18 30 -38 26 -43 -3 -6 -2 -11 3 -11 6 0 15 -13 21 -30 5 -16 6 -30 1
-30 -5 0 -7 -8 -5 -19 2 -10 -5 -25 -16 -34 -10 -9 -19 -12 -19 -6 0 5 -4 7
-10 4 -5 -3 -24 10 -41 29 -17 20 -35 33 -40 30 -14 -8 -10 -47 6 -68 8 -11
15 -17 15 -13 0 4 9 3 20 -3 26 -14 25 -22 -4 -85 -25 -51 -78 -105 -104 -105
-7 0 -11 -4 -8 -9 8 -12 -27 -8 -36 4 -5 6 -8 5 -8 -3 0 -7 -4 -10 -10 -7 -5
3 -17 2 -25 -2 -13 -8 -11 -17 14 -66 16 -31 27 -57 25 -57 -2 0 6 -17 19 -37
13 -21 26 -46 30 -55 3 -10 11 -18 16 -18 5 0 16 -16 25 -35 9 -19 21 -35 26
-35 6 0 10 -5 10 -11 0 -11 75 -103 135 -165 17 -17 47 -48 67 -70 69 -71 75
-76 97 -69 12 3 21 13 21 21 0 8 9 27 19 42 25 36 99 165 100 175 0 4 7 15 16
23 8 9 13 20 10 25 -4 5 -2 9 3 9 4 0 19 19 32 42 13 24 28 46 34 50 6 4 7 8
3 8 -5 0 1 14 13 30 12 16 18 30 13 30 -4 0 -3 4 3 8 20 14 74 113 68 124 -4
6 -3 8 3 5 5 -3 21 14 34 39 42 79 55 102 73 128 9 14 14 26 11 26 -3 0 3 10
15 22 11 12 20 28 20 35 0 7 5 13 10 13 6 0 10 9 10 20 0 11 5 20 10 20 6 0
10 7 10 15 0 8 4 15 10 15 5 0 9 3 8 8 -2 4 6 23 18 42 11 19 20 38 20 42 -1
4 8 14 19 22 11 9 16 16 10 16 -7 0 -7 3 0 8 11 8 36 49 62 105 10 20 21 37
25 37 5 0 8 7 8 15 0 8 5 15 12 15 6 0 8 3 5 6 -4 4 2 19 13 34 11 16 20 32
20 37 0 5 10 20 23 33 12 14 21 26 19 27 -3 4 28 66 37 73 10 8 34 63 38 85 6
35 4 126 -4 138 -4 7 -8 18 -10 26 -1 8 -5 17 -10 20 -7 6 -18 24 -74 126 -12
22 -24 42 -28 45 -3 3 -14 21 -23 40 -25 50 -52 94 -61 98 -4 2 -5 8 -1 13 3
5 0 9 -6 9 -6 0 -9 4 -6 9 4 5 3 11 -2 13 -4 1 -34 50 -67 108 -33 58 -63 107
-67 108 -4 2 -8 12 -8 23 0 10 -5 19 -11 19 -5 0 -8 4 -5 9 3 5 -1 12 -9 15
-8 3 -14 9 -13 13 1 4 -9 26 -23 48 -13 22 -33 57 -44 78 -11 20 -23 37 -28
37 -4 0 -6 4 -2 9 3 6 -2 14 -11 19 -9 5 -16 12 -16 15 0 19 -11 47 -19 47 -5
0 -9 6 -9 14 0 7 -9 25 -20 38 -10 14 -16 28 -13 32 3 3 2 6 -4 6 -6 0 -16 14
-23 30 -7 17 -17 30 -23 30 -6 0 -8 3 -4 6 3 3 -8 27 -24 52 -16 25 -29 52
-29 59 0 7 -4 13 -10 13 -5 0 -10 6 -10 14 0 8 -7 21 -15 30 -9 8 -28 39 -44
68 -48 90 -83 152 -103 181 -11 15 -16 27 -11 27 4 0 3 4 -3 8 -6 4 -26 34
-44 67 -18 33 -44 77 -57 97 -12 21 -23 40 -23 44 0 3 -7 12 -15 21 -8 8 -13
19 -10 24 4 5 3 9 -2 9 -4 0 -19 21 -32 48 -14 26 -31 55 -39 65 -9 9 -12 17
-8 17 4 0 -2 10 -13 22 -11 11 -18 25 -15 30 3 4 1 8 -5 8 -6 0 -13 11 -17 25
-3 14 -10 25 -15 25 -5 0 -9 7 -9 15 0 7 -6 18 -14 22 -8 4 -15 10 -15 13 -1
17 -24 70 -30 70 -7 0 -41 65 -40 76 0 4 -3 10 -8 13 -11 7 -78 125 -74 129 1
2 -6 10 -16 18 -10 7 -13 14 -8 14 7 0 7 3 0 8 -10 7 -23 29 -62 102 -10 19
-20 37 -23 40 -3 3 -14 21 -24 40 -23 39 -31 50 -66 88 -31 33 -110 78 -110
62 0 -6 -5 -8 -11 -4 -14 8 -2987 12 -3075 3z"/>
<path d="M2758 8250 c-46 -46 -29 -99 34 -105 48 -4 72 19 84 81 4 21 -27 48
-58 50 -23 2 -39 -5 -60 -26z"/>
<path d="M4204 6321 c-2 -3 -23 -6 -47 -7 -23 -1 -42 -3 -42 -5 0 -1 -16 -3
-36 -4 -19 -1 -40 -4 -45 -6 -5 -3 -30 -4 -56 -4 -27 1 -48 -1 -48 -5 0 -3
-30 -4 -67 -3 -141 7 -161 5 -184 -11 -13 -9 -19 -16 -14 -16 6 -1 -1 -7 -15
-15 -14 -8 -20 -14 -15 -15 6 0 -5 -9 -24 -21 -18 -11 -36 -18 -39 -15 -3 3
-10 2 -16 -3 -6 -5 -24 -11 -41 -14 -30 -5 -85 -24 -85 -29 0 -3 587 -3 606 0
6 1 36 27 67 58 32 30 57 52 57 47 0 -4 6 -1 13 7 7 8 17 15 22 15 17 1 85 38
85 47 0 9 -67 8 -76 -1z"/>
<path d="M4280 6190 c-8 -5 -10 -10 -5 -10 6 0 3 -5 -5 -10 -13 -9 -13 -11 0
-20 17 -10 34 10 28 35 -2 10 -7 12 -18 5z"/>
<path d="M3296 6179 c-50 -12 -52 -14 -33 -34 9 -9 18 -11 22 -6 3 6 11 8 18
5 15 -5 60 30 50 40 -7 7 -5 7 -57 -5z"/>
<path d="M1722 5762 c-28 -14 -49 -29 -46 -33 3 -5 1 -9 -4 -9 -12 0 -78 -101
-74 -113 1 -4 -5 -10 -13 -13 -8 -4 -15 -14 -15 -24 0 -9 -9 -27 -20 -40 -11
-13 -23 -34 -26 -47 -4 -13 -10 -23 -14 -23 -4 0 -10 -8 -14 -17 -5 -17 -12
-29 -48 -84 -10 -14 -15 -29 -11 -33 3 -3 2 -6 -4 -6 -6 0 -16 -13 -22 -30 -5
-16 -15 -30 -22 -30 -7 0 -9 -3 -6 -6 4 -4 -3 -20 -14 -35 -11 -16 -17 -29
-13 -29 4 0 -1 -7 -12 -15 -10 -8 -16 -15 -12 -15 7 0 -84 -157 -106 -182 -9
-10 -17 -21 -17 -25 -3 -17 -34 -78 -41 -81 -5 -2 -8 -10 -8 -18 0 -8 -4 -14
-10 -14 -5 0 -9 -3 -8 -7 2 -7 -41 -86 -113 -206 -16 -26 -29 -52 -29 -57 0
-5 -7 -13 -16 -18 -9 -5 -15 -12 -15 -16 1 -6 -20 -50 -45 -91 -7 -11 -20 -36
-30 -55 -9 -19 -26 -45 -37 -57 -11 -13 -17 -23 -13 -23 5 0 4 -6 -2 -12 -9
-11 -25 -39 -66 -113 -6 -11 -23 -38 -36 -60 -14 -22 -32 -52 -39 -67 -8 -16
-18 -28 -23 -28 -5 0 -6 -5 -2 -11 3 -6 2 -14 -4 -18 -6 -3 -12 -13 -14 -21
-2 -8 -12 -23 -22 -32 -10 -10 -16 -18 -12 -18 4 0 -2 -13 -13 -29 -12 -16
-21 -31 -21 -34 0 -7 -82 -150 -89 -157 -3 -3 -12 -16 -19 -29 -8 -13 -22 -38
-32 -56 -10 -18 -16 -36 -13 -39 4 -3 2 -6 -4 -6 -5 0 -23 -25 -38 -55 -16
-30 -33 -55 -38 -55 -4 0 -6 -4 -3 -9 3 -5 -1 -14 -9 -21 -8 -7 -15 -16 -15
-21 0 -5 -18 -39 -40 -75 -22 -36 -40 -68 -40 -71 0 -3 -8 -17 -19 -31 -35
-51 -133 -232 -125 -232 4 0 2 -6 -3 -12 -17 -23 -4 -146 19 -172 19 -23 116
-196 110 -196 -4 0 -2 -4 4 -8 6 -4 21 -26 33 -49 12 -24 26 -43 32 -43 6 0 8
-4 5 -8 -3 -5 5 -24 17 -43 26 -42 45 -75 65 -114 9 -16 18 -32 21 -35 9 -8
52 -83 58 -103 3 -9 10 -17 15 -17 5 0 6 -4 3 -10 -3 -5 -1 -10 5 -10 6 0 8
-4 5 -10 -3 -6 -1 -10 4 -10 6 0 11 -7 11 -15 0 -8 3 -15 8 -15 4 0 18 -23 32
-51 13 -27 33 -59 43 -69 10 -11 15 -20 13 -20 -6 0 38 -83 65 -122 11 -14 19
-31 19 -37 0 -6 3 -11 8 -11 4 0 12 -10 17 -23 17 -35 59 -112 66 -117 3 -3
12 -20 20 -38 8 -17 17 -32 21 -32 5 0 8 -6 8 -14 0 -7 7 -19 15 -26 8 -7 12
-16 9 -21 -3 -5 0 -9 5 -9 6 0 11 -5 11 -10 0 -6 17 -38 38 -73 20 -34 43 -75
51 -90 8 -15 18 -27 23 -27 5 0 6 -4 3 -10 -3 -5 -1 -10 5 -10 7 0 10 -7 6
-15 -3 -8 -2 -15 3 -15 5 0 16 -15 26 -32 9 -18 24 -46 32 -63 9 -16 19 -32
23 -35 5 -3 22 -32 39 -65 18 -33 37 -69 44 -80 7 -10 22 -36 35 -57 22 -37
49 -51 49 -25 0 6 14 42 31 78 17 36 32 72 34 80 2 8 7 17 11 20 5 3 9 12 11
20 1 8 15 41 30 74 16 33 29 66 29 73 0 6 4 12 8 12 4 0 20 26 35 58 16 31 34
63 41 70 7 7 13 20 13 28 0 8 5 14 10 14 6 0 10 5 10 10 0 10 107 180 119 190
3 3 24 31 45 63 22 32 52 72 68 89 15 17 28 36 28 42 0 6 15 28 34 48 19 20
31 39 29 42 -3 3 2 8 11 12 9 3 16 10 16 15 0 20 185 211 194 201 3 -3 6 2 6
11 0 8 8 18 18 22 9 3 38 24 64 48 26 23 59 51 73 62 15 11 33 26 40 33 8 6
16 12 19 12 3 0 24 18 48 40 24 22 46 40 50 40 3 0 23 16 42 35 20 19 40 35
44 35 5 0 18 10 29 22 11 13 30 30 42 38 13 8 35 25 49 37 15 13 31 23 35 23
4 0 23 15 41 33 33 32 44 41 100 85 16 12 26 22 23 22 -3 0 14 20 38 44 25 24
45 47 45 51 0 4 8 15 19 24 10 9 26 31 35 49 9 17 21 32 27 32 6 0 8 4 5 9 -3
5 1 11 9 15 8 3 15 12 15 21 0 8 7 15 16 15 8 0 13 4 10 9 -3 5 1 14 9 21 17
14 20 40 5 40 -5 0 -10 -4 -10 -10 0 -5 -7 -10 -15 -10 -8 0 -15 -4 -15 -10 0
-5 -7 -10 -15 -10 -8 0 -15 -4 -15 -10 0 -5 -17 -19 -37 -30 -21 -11 -54 -30
-73 -42 -66 -40 -142 -78 -156 -78 -8 0 -14 -5 -14 -11 0 -5 -4 -7 -10 -4 -5
3 -10 2 -10 -4 0 -6 -7 -8 -15 -5 -8 3 -20 2 -27 -2 -22 -14 -70 -13 -90 0
-17 12 -14 15 29 38 66 34 97 52 103 59 3 4 15 9 28 13 12 4 22 11 22 15 0 5
13 14 29 21 16 6 32 18 35 26 3 8 11 14 18 14 7 0 25 10 39 23 15 12 43 36 64
52 20 17 59 50 87 75 27 25 52 44 54 43 2 -1 20 13 40 32 20 19 40 32 45 29 5
-3 9 0 9 6 0 6 11 15 25 20 14 5 25 14 25 20 0 6 4 9 9 5 5 -3 15 0 23 7 7 7
20 14 28 16 8 2 17 7 20 11 3 5 13 7 22 5 10 -1 22 5 26 13 5 8 13 15 18 14
15 0 58 11 69 19 12 8 126 38 170 44 17 2 30 5 30 6 0 1 21 3 48 5 26 2 53 5
61 8 8 3 17 3 20 0 3 -3 27 -6 53 -8 81 -3 127 -16 231 -62 29 -12 57 -23 63
-23 6 0 8 -4 5 -9 -3 -5 8 -14 24 -21 16 -7 45 -31 65 -54 19 -22 40 -48 47
-56 7 -8 13 -17 13 -20 1 -18 24 -38 50 -44 31 -7 57 -13 65 -16 3 -1 8 -2 13
-1 4 0 7 -3 7 -7 0 -5 7 -9 15 -9 18 0 115 -39 208 -84 70 -33 124 -89 86 -89
-5 0 -8 -4 -5 -9 7 -10 -30 -22 -39 -12 -10 9 -415 8 -421 -1 -3 -4 -16 -8
-30 -8 -34 0 -100 -35 -139 -75 -35 -34 -77 -106 -82 -140 -2 -11 -6 -31 -10
-45 -10 -40 -10 -62 4 -110 8 -25 13 -46 13 -47 0 -2 0 -4 1 -5 0 -2 3 -23 5
-47 3 -25 10 -53 15 -62 5 -10 9 -28 9 -42 0 -13 3 -26 6 -30 3 -3 8 -32 10
-64 4 -67 7 -84 17 -100 4 -6 3 -14 -3 -18 -6 -4 -7 -12 -1 -24 6 -10 6 -23 1
-31 -5 -9 -5 -19 2 -27 6 -7 6 -13 1 -13 -10 0 -10 -41 1 -58 4 -7 4 -12 -1
-12 -4 0 -9 -12 -9 -27 -3 -54 -15 -128 -24 -138 -4 -5 -8 -12 -8 -15 0 -19
-19 -74 -44 -128 -15 -34 -28 -67 -28 -72 0 -6 -3 -10 -8 -10 -4 0 -23 -30
-42 -67 -19 -38 -37 -70 -41 -73 -3 -3 -21 -31 -40 -62 -18 -32 -37 -58 -41
-58 -5 0 -8 -7 -8 -15 0 -8 -4 -15 -8 -15 -4 0 -15 -12 -24 -27 -25 -41 -57
-81 -115 -142 -29 -30 -53 -59 -53 -64 0 -6 -2 -8 -6 -5 -3 3 -30 -19 -60 -49
-29 -30 -54 -51 -54 -46 0 4 -11 -4 -24 -19 -13 -16 -27 -28 -32 -28 -9 0 -22
-20 -46 -73 -7 -15 -16 -27 -21 -27 -4 0 -6 -4 -2 -9 3 -5 -2 -16 -10 -24 -8
-9 -15 -23 -15 -31 0 -9 -5 -16 -12 -16 -6 0 -9 -3 -6 -6 4 -3 -5 -22 -18 -42
-14 -19 -27 -47 -31 -61 -3 -14 -13 -34 -21 -43 -8 -10 -12 -18 -9 -18 3 0 -3
-25 -13 -55 -10 -30 -15 -57 -11 -60 8 -5 25 -63 22 -78 0 -4 3 -7 7 -7 5 0 9
-6 10 -12 6 -47 10 -60 20 -70 7 -7 12 -17 12 -23 0 -20 52 -115 63 -115 5 0
8 -3 4 -6 -3 -3 0 -12 6 -19 10 -10 18 -10 42 3 17 8 44 16 60 18 17 1 44 5
60 9 46 11 125 13 125 3 0 -4 5 -8 11 -8 5 0 7 6 3 13 -4 6 2 3 14 -7 12 -11
22 -15 22 -11 0 5 5 4 12 -3 15 -15 -7 -42 -33 -42 -11 0 -19 -6 -19 -12 0
-10 -3 -9 -9 1 -6 9 -11 10 -15 2 -4 -6 -2 -12 3 -12 14 -2 30 -6 34 -9 1 -1
25 -3 52 -5 55 -3 107 -12 145 -24 43 -13 1109 -7 1157 7 38 11 141 92 118 92
-6 0 -3 5 5 10 8 5 15 14 15 20 0 6 6 14 13 19 8 5 13 11 12 15 -1 4 19 42 44
86 25 43 46 84 46 90 0 5 5 10 10 10 6 0 10 6 10 14 0 7 7 19 15 26 8 7 13 16
10 20 -3 5 -1 10 3 12 4 1 37 54 72 117 35 62 70 120 78 127 7 8 11 14 7 14
-3 0 3 13 14 29 12 16 21 34 21 40 0 6 5 11 11 11 5 0 7 4 4 10 -3 5 -1 10 5
10 6 0 8 4 5 10 -3 5 -1 10 4 10 6 0 11 7 11 15 0 8 5 15 10 15 6 0 10 6 10
13 0 7 11 29 25 48 13 20 21 39 18 43 -4 3 -1 6 5 6 7 0 12 7 12 15 0 8 4 15
8 15 4 0 15 15 23 32 21 45 53 102 60 108 3 3 19 30 35 60 16 30 31 57 34 60
4 4 24 38 54 95 6 11 17 28 25 38 8 9 10 17 6 17 -5 0 0 7 11 15 10 8 15 15
11 15 -5 0 -1 7 7 16 9 8 14 20 11 25 -4 5 -2 9 3 9 5 0 15 14 22 30 7 17 16
30 21 30 5 0 8 3 7 8 -1 4 8 23 20 42 11 19 22 40 22 45 1 6 8 14 16 18 8 5
12 12 9 18 -4 5 -1 9 4 9 6 0 11 5 11 11 0 6 22 48 49 93 27 44 49 85 49 90 0
5 6 12 13 17 7 4 14 16 15 25 2 10 9 23 17 29 14 10 16 14 25 47 2 10 8 18 13
18 5 0 9 6 9 14 0 7 7 19 15 26 8 7 12 16 9 21 -3 5 0 9 6 9 6 0 8 5 5 10 -3
6 -2 10 3 10 5 0 20 21 34 48 61 114 72 131 82 125 6 -3 8 -3 4 2 -4 4 -2 17
4 29 7 11 11 24 10 29 -1 4 2 7 7 7 5 0 11 8 14 17 4 10 18 36 32 58 14 22 31
52 37 68 7 15 15 27 19 27 4 0 10 11 13 25 4 14 11 23 17 20 5 -4 8 -3 7 2 -4
15 13 53 24 53 6 0 8 3 5 7 -4 3 -2 12 4 20 6 7 8 13 3 13 -4 0 -1 6 8 13 9 6
30 38 47 70 53 98 42 217 -29 302 -7 8 -9 15 -4 15 5 0 4 4 -1 8 -10 7 -85
129 -85 138 0 2 -15 27 -32 56 -18 29 -42 69 -53 89 -11 20 -31 56 -45 80 -13
24 -23 47 -22 52 1 4 -2 7 -6 7 -5 0 -20 21 -33 48 -13 26 -30 53 -36 60 -7 7
-13 20 -13 28 0 8 -5 14 -11 14 -5 0 -7 5 -4 10 3 6 1 10 -4 10 -6 0 -11 5
-11 11 0 6 -7 17 -15 26 -8 8 -13 19 -10 24 4 5 1 9 -4 9 -6 0 -11 7 -11 15 0
8 -4 15 -9 15 -7 0 -22 36 -18 43 1 1 -4 9 -11 17 -19 23 -56 82 -69 113 -7
15 -17 27 -23 27 -5 0 -10 7 -10 15 0 18 -20 57 -35 67 -5 4 -6 8 -2 8 5 0 1
7 -7 16 -9 8 -14 20 -11 25 4 5 1 9 -4 9 -10 0 -62 92 -60 106 0 3 -9 14 -20
23 -12 10 -21 26 -21 35 0 9 -3 16 -8 16 -4 0 -14 15 -21 33 -8 17 -30 56 -48
85 -19 28 -37 60 -40 70 -4 9 -19 36 -34 58 -16 23 -25 44 -22 48 4 3 2 6 -4
6 -5 0 -20 20 -32 45 -12 24 -26 47 -32 50 -5 4 -7 11 -4 16 4 5 3 9 -2 9 -4
0 -19 21 -33 48 -13 26 -27 49 -31 52 -3 3 -12 20 -20 38 -8 17 -17 32 -21 32
-5 0 -8 6 -8 14 0 8 -7 21 -15 30 -8 8 -19 25 -25 38 -5 13 -23 46 -40 73 -17
28 -33 58 -36 68 -4 9 -10 17 -14 17 -4 0 -11 11 -14 25 -4 14 -11 25 -16 25
-6 0 -10 9 -10 19 0 10 -7 21 -15 25 -8 3 -15 14 -15 24 0 11 -7 25 -15 32 -8
7 -15 18 -15 25 0 7 -7 18 -15 25 -8 7 -12 16 -9 21 3 5 1 9 -4 9 -5 0 -15 14
-22 30 -7 17 -17 30 -23 30 -6 0 -7 3 -4 6 4 4 -2 19 -13 34 -11 15 -17 30
-13 34 3 3 1 6 -4 6 -6 0 -21 21 -34 47 -13 26 -30 55 -38 65 -9 10 -16 22
-16 25 0 14 -48 55 -89 76 l-41 22 -1571 1 -1571 1 -51 -25z"/>
<path d="M10241 5435 c-20 -30 -22 -39 -12 -62 12 -29 61 -72 61 -53 0 5 7 10
15 10 8 0 15 5 15 11 0 5 4 8 9 5 8 -5 16 12 26 52 2 6 -1 12 -6 12 -5 0 -9 7
-9 16 0 9 -8 23 -17 30 -30 23 -57 16 -82 -21z"/>
<path d="M10039 4768 c-6 -12 -4 -100 2 -104 5 -2 6 -11 2 -19 -3 -8 -1 -15 3
-15 5 0 10 -10 10 -22 3 -41 15 -93 25 -102 5 -6 9 -18 9 -28 0 -10 5 -18 10
-18 6 0 10 -9 10 -20 0 -11 3 -20 8 -20 4 0 14 -15 22 -32 14 -34 22 -45 53
-79 9 -10 14 -19 10 -19 -3 0 3 -10 15 -23 12 -13 19 -27 15 -30 -3 -4 -1 -7
6 -7 7 0 9 -4 6 -10 -3 -5 -2 -10 3 -10 5 0 22 -25 38 -55 16 -30 33 -55 37
-55 5 0 5 -4 2 -10 -3 -5 -2 -10 3 -10 6 0 13 -11 16 -24 8 -31 45 -45 137
-50 42 -2 85 -9 97 -15 28 -15 36 -51 23 -112 0 -4 -14 -12 -31 -19 -16 -7
-29 -15 -28 -19 1 -3 -1 -16 -5 -27 -6 -17 -18 -23 -47 -26 -22 -2 -41 1 -43
6 -2 5 -14 10 -28 12 -13 1 -24 3 -24 4 0 1 -8 3 -18 5 -10 2 -26 10 -35 18
-10 8 -37 19 -62 26 -25 7 -49 13 -55 15 -5 2 -19 7 -30 11 -11 3 -38 27 -60
52 -102 117 -212 215 -243 219 -25 3 -61 -12 -74 -31 -4 -5 -8 -6 -8 -2 0 4
-10 -1 -22 -12 -11 -11 -24 -18 -28 -16 -5 3 -10 -2 -14 -10 -3 -8 -12 -12
-21 -9 -8 3 -15 2 -15 -3 0 -8 -59 -41 -78 -44 -4 0 -14 -6 -22 -14 -8 -7 -26
-16 -40 -20 -14 -4 -27 -11 -30 -14 -3 -4 -23 -15 -45 -25 -22 -11 -42 -22
-45 -25 -6 -8 -119 -62 -122 -60 -2 2 -13 -3 -25 -9 -12 -7 -24 -8 -27 -4 -5
8 -12 56 -22 146 -3 27 -8 54 -12 60 -3 6 -7 17 -8 24 -2 8 -6 21 -10 30 -4 9
-8 20 -9 25 -2 4 -4 9 -5 12 -1 3 -3 8 -4 13 -1 4 -12 30 -25 57 -13 28 -23
53 -23 58 1 4 -6 7 -15 7 -9 0 -14 3 -10 6 13 13 -161 167 -190 167 -7 0 -13
4 -13 8 0 8 -40 24 -52 21 -5 -1 -8 1 -8 6 0 12 -154 17 -173 5 -7 -4 -14 -8
-17 -9 -20 -4 -40 -18 -40 -28 0 -16 67 -19 76 -5 5 8 8 8 13 0 4 -6 21 -11
39 -13 18 -1 32 -7 32 -12 0 -5 3 -7 6 -3 3 3 32 -10 64 -29 32 -19 63 -34 69
-34 6 0 11 -7 11 -16 0 -8 4 -13 9 -10 4 3 23 -16 42 -42 18 -26 41 -56 51
-66 10 -11 24 -32 30 -48 7 -15 16 -28 20 -28 4 0 5 -7 2 -15 -4 -8 -1 -15 6
-15 6 0 8 -4 5 -10 -3 -5 -2 -10 3 -10 5 0 9 -6 10 -12 5 -43 12 -70 20 -81 6
-7 9 -24 7 -39 -2 -16 0 -28 5 -28 10 0 20 -56 25 -149 2 -40 6 -79 9 -87 3
-7 1 -16 -3 -18 -5 -3 -5 -25 -1 -48 5 -23 6 -51 4 -61 -2 -11 0 -25 4 -31 3
-6 7 -32 7 -58 2 -63 37 -115 85 -125 19 -3 80 -7 135 -9 110 -2 141 -8 150
-32 6 -17 -31 -62 -52 -62 -8 0 -12 -4 -9 -9 3 -5 -1 -11 -9 -15 -8 -3 -15
-12 -15 -19 0 -21 -32 -45 -69 -52 -19 -3 -41 -10 -50 -14 -9 -5 -40 -11 -70
-14 -29 -3 -56 -8 -59 -11 -7 -8 -42 -7 455 -7 394 0 446 2 485 18 52 21 85
52 123 118 16 28 34 53 40 57 6 5 6 8 0 8 -5 0 -2 7 8 14 10 8 19 23 20 35 1
12 7 21 15 21 7 0 11 4 7 9 -3 5 0 15 7 23 7 7 14 20 16 28 2 8 7 17 10 20 10
7 52 81 59 103 3 9 9 17 14 17 5 0 9 6 9 14 0 8 7 22 16 30 8 9 12 16 8 16 -4
0 2 10 14 23 11 12 20 25 19 29 -1 4 6 16 15 28 10 11 15 20 12 20 -3 0 4 13
15 29 11 15 18 31 14 35 -3 3 -1 6 4 6 6 0 21 20 33 45 12 25 27 45 33 45 5 0
7 3 4 7 -4 3 -3 11 2 17 5 6 18 28 30 49 34 60 56 99 90 155 17 29 31 56 31
61 0 25 -85 71 -122 65 -10 -1 -18 2 -18 7 0 6 -4 7 -10 4 -5 -3 -10 -2 -10 4
0 5 -9 8 -20 6 -11 -2 -20 0 -20 6 0 5 -8 9 -19 9 -10 0 -24 7 -31 15 -7 8
-16 12 -21 9 -5 -3 -9 0 -9 5 0 6 -7 11 -15 11 -8 0 -15 5 -15 11 0 5 -4 7
-10 4 -11 -7 -61 17 -79 39 -7 9 -18 13 -23 10 -5 -3 -16 2 -24 12 -9 11 -12
13 -8 5 4 -8 -9 -1 -29 15 -20 16 -37 31 -38 34 0 3 -2 14 -4 25 -2 10 0 24 4
30 7 9 15 32 28 85 2 8 6 35 9 60 4 25 11 50 16 57 12 15 2 33 -17 33 -12 0
-26 -33 -40 -90 0 -3 -9 -32 -20 -65 -10 -33 -20 -68 -22 -77 -1 -10 -4 -23
-5 -30 -4 -19 -76 -88 -91 -88 -8 0 -18 10 -24 23 -23 48 -47 102 -48 107 0 3
-4 11 -8 18 -5 6 -6 16 -3 21 4 5 1 11 -4 13 -6 2 -12 16 -14 31 -1 14 -11 37
-22 49 -10 12 -13 18 -6 14 15 -9 16 10 1 19 -6 4 -8 13 -5 21 3 8 1 14 -5 14
-6 0 -7 5 -4 10 3 6 4 10 1 10 -3 0 -7 -1 -7 -2z m-500 -1127 c5 -14 9 -42 7
-61 -1 -19 1 -40 6 -46 18 -24 -34 -57 -87 -55 -5 1 -41 2 -80 4 -102 5 -115
11 -115 55 0 37 31 82 57 82 7 0 13 4 13 8 0 4 17 14 38 22 88 34 145 31 161
-9z"/>
<path d="M3840 3275 c-14 -7 -24 -16 -22 -19 1 -3 2 -7 1 -8 -7 -24 -5 -43 4
-52 39 -39 91 -11 85 45 -4 39 -32 53 -68 34z"/>
<path d="M3139 2247 c7 -7 23 -12 35 -12 31 -1 96 -36 96 -52 0 -7 7 -13 16
-13 8 0 12 -4 9 -10 -3 -5 -1 -10 4 -10 6 0 11 -7 11 -15 0 -8 5 -15 12 -15 6
0 8 -3 5 -7 -4 -3 -2 -12 5 -20 6 -7 8 -16 5 -20 -4 -3 -1 -13 5 -21 18 -21
18 -259 1 -274 -7 -6 -10 -14 -7 -19 3 -5 -1 -19 -7 -31 -7 -13 -14 -36 -16
-52 -2 -16 -8 -35 -14 -43 -6 -7 -8 -13 -5 -13 4 0 0 -7 -8 -16 -9 -8 -14 -20
-11 -25 4 -5 1 -9 -5 -9 -6 0 -8 -4 -5 -10 3 -5 2 -10 -3 -10 -5 0 -15 -12
-23 -27 -21 -43 -111 -177 -123 -185 -6 -4 -7 -8 -3 -8 5 0 2 -6 -6 -14 -7 -8
-28 -37 -46 -65 -18 -28 -37 -51 -43 -51 -5 0 -6 -4 -3 -10 3 -5 1 -10 -4 -10
-6 0 -11 -6 -11 -14 0 -8 -7 -17 -16 -20 -8 -3 -12 -10 -9 -16 3 -5 -2 -10
-11 -10 -10 0 -15 -3 -12 -6 4 -3 -1 -13 -10 -23 -9 -10 -30 -33 -46 -52 -53
-62 -106 -119 -106 -113 0 3 -17 -10 -37 -29 -90 -83 -106 -97 -115 -97 -5 0
-20 -12 -33 -26 -13 -14 -26 -25 -30 -24 -8 1 -119 -73 -123 -82 -2 -5 -9 -8
-15 -8 -7 0 -30 -14 -51 -30 -22 -17 -46 -30 -53 -30 -7 0 -13 -5 -13 -11 0
-5 -4 -8 -9 -5 -5 3 -14 -1 -21 -10 -7 -8 -19 -13 -27 -10 -7 3 -13 1 -13 -4
0 -6 -7 -10 -15 -10 -8 0 -23 -4 -33 -10 -23 -13 -142 -52 -170 -55 -13 -2
-29 -9 -37 -15 -8 -6 -19 -9 -24 -5 -6 3 -20 1 -31 -5 -11 -6 -36 -11 -55 -12
-19 -1 -35 -4 -35 -7 0 -3 -19 -7 -43 -8 -23 -2 -58 -6 -77 -9 -19 -3 -62 -7
-95 -9 -33 -2 -68 -3 -78 -4 -14 -1 -18 -8 -15 -28 2 -16 8 -33 13 -40 6 -7
16 -19 23 -27 7 -9 12 -18 12 -21 0 -3 6 -15 14 -28 8 -12 16 -28 18 -36 4
-18 66 -83 98 -103 43 -27 89 -32 295 -33 149 -1 207 2 228 12 15 7 27 11 27
8 0 -9 61 35 88 63 12 13 31 24 42 25 11 1 22 7 25 15 3 7 9 10 15 7 5 -3 10
-2 10 4 0 5 9 12 20 16 18 6 19 8 4 31 -9 13 -12 24 -8 24 5 0 4 4 -2 8 -11 8
-37 61 -49 102 -5 14 -21 48 -36 77 -27 50 -27 52 -9 58 11 4 20 11 20 16 0 5
6 9 13 9 7 0 23 9 35 20 12 12 22 18 22 15 0 -6 119 66 193 118 31 23 57 45
57 49 0 4 4 8 9 8 23 0 261 233 261 255 0 3 8 13 18 23 33 35 60 70 73 94 6
12 18 27 25 31 8 4 14 13 14 18 0 10 76 126 91 139 3 3 16 23 29 45 13 22 26
42 29 45 4 3 20 32 36 65 17 33 35 63 40 67 6 4 7 8 2 8 -4 0 0 11 9 24 8 14
15 27 15 30 0 6 5 26 16 54 3 9 7 26 8 38 1 11 6 27 10 35 13 21 14 242 1 291
-15 55 -40 106 -68 138 -33 37 -86 72 -98 65 -5 -3 -10 -2 -10 4 0 5 -21 9
-46 9 -35 0 -44 -2 -35 -11z"/>
<path d="M2553 565 c-13 -5 -23 -13 -23 -18 0 -4 -4 -6 -8 -3 -4 2 -13 -4 -20
-15 -7 -11 -8 -19 -2 -19 5 0 10 -10 10 -22 1 -34 38 -170 51 -183 9 -9 90
-10 257 -3 57 3 66 0 83 -21 18 -22 18 -24 2 -36 -11 -8 -22 -10 -29 -4 -6 5
-14 6 -17 2 -4 -3 -7 -1 -7 5 0 6 -9 9 -22 6 -13 -3 -32 -7 -43 -8 -11 -2 -18
-6 -17 -11 2 -4 -2 -12 -10 -16 -13 -9 -5 -11 50 -13 9 -1 20 -5 25 -11 5 -7
10 -7 15 0 8 12 72 13 90 2 6 -5 12 -19 12 -31 0 -17 -6 -24 -22 -25 -103 -5
-124 -3 -142 14 -8 8 -23 15 -34 15 -10 0 -22 3 -26 7 -8 8 -36 13 -86 16 -19
1 -41 6 -48 11 -7 4 -16 5 -19 2 -3 -3 -14 -1 -24 5 -14 7 -19 6 -19 -2 0 -7
-3 -10 -6 -6 -3 3 -15 -3 -27 -13 -11 -11 -23 -17 -27 -15 -4 3 -13 -2 -20
-10 -7 -8 -18 -15 -24 -15 -13 -1 -56 -35 -56 -45 0 -3 4 -4 9 0 5 3 12 2 14
-3 7 -10 713 -8 752 3 17 4 33 10 38 12 7 4 -8 39 -27 59 -27 29 -46 55 -46
64 0 6 -4 10 -10 10 -5 0 -10 9 -10 19 0 11 -4 21 -9 23 -5 2 -11 10 -13 18
-2 8 -6 17 -9 20 -3 3 -18 31 -34 63 -30 62 -39 72 -70 73 -11 0 -40 6 -65 14
-25 7 -48 13 -52 12 -3 -1 -11 5 -18 13 -6 7 -18 11 -26 8 -8 -3 -14 1 -14 8
0 7 -3 10 -6 6 -3 -3 -18 -1 -33 5 -14 5 -37 12 -51 15 -13 2 -30 9 -37 14 -7
6 -18 7 -24 3 -7 -4 -9 -3 -6 3 8 13 -41 12 -70 -2z"/>
<path d="M3480 156 c0 -2 7 -7 16 -10 8 -3 12 -2 9 4 -6 10 -25 14 -25 6z"/>
</g>
</svg>
