<svg class="typst-doc" viewBox="0 0 164.40944881889763 164.40944881889763" width="164.40944881889763pt" height="164.40944881889763pt" xmlns="http://www.w3.org/2000/svg" xmlns:xlink="http://www.w3.org/1999/xlink" xmlns:h5="http://www.w3.org/1999/xhtml">
    <path class="typst-shape" fill="#ffffff" fill-rule="nonzero" d="M 0 0v 164.40945 h 164.40945 v -164.40945 Z "/>
    <g>
        <g class="typst-group" transform="matrix(1 0 0 1 2.8346456692913384 2.8346456692913384)">
            <g>
                <g class="typst-group">
                    <g>
                        <path class="typst-shape" fill="none" stroke="#000000" stroke-width="1" stroke-linecap="butt" stroke-linejoin="miter" stroke-miterlimit="4" d="M 0 0m 8.503937 -0.000000000000004720633 c -4.692336 0 -8.503937 3.8116007 -8.503937 8.503937 c 0 4.692337 3.8116007 8.503937 8.503937 8.503937 c 4.692337 0 8.503937 -3.8115997 8.503937 -8.503937 c 0 -4.692336 -3.8115997 -8.503937 -8.503937 -8.503937 Z "/>
                        <path class="typst-shape" fill="none" transform="matrix(1 0 0 1 5.753937007874015 4.747437007874016)" d="M 0 0m 0 -0.000000000000004720633 h 5.5 v 7.513 h -5.5 v -7.513 Z "/>
                        <g class="typst-group">
                            <g>
                                <g class="typst-group" transform="matrix(1 0 0 1 5.753936976377953 4.747436929133852)">
                                    <g>
                                        <g class="typst-text" transform="matrix(1 0 0 -1 0 7.513000000000001)">
                                            <use xlink:href="#g62ADD22BD523EFE963483FAC83E768AF" x="0" y="0" fill="#000000" fill-rule="nonzero"/>
                                        </g>
                                    </g>
                                </g>
                            </g>
                        </g>
                        <path class="typst-shape" fill="none" stroke="#000000" stroke-width="1" stroke-linecap="butt" stroke-linejoin="miter" stroke-miterlimit="4" transform="matrix(1 0 0 1 28.346456692913385 28.346456692913385)" d="M 0 0m 8.503937 -0.0000000000000062941777 c -4.692336 0 -8.503937 3.8116007 -8.503937 8.503937 c 0 4.692337 3.8116007 8.503937 8.503937 8.503937 c 4.692337 0 8.503937 -3.8115997 8.503937 -8.503937 c 0 -4.692336 -3.8115997 -8.503937 -8.503937 -8.503937 Z "/>
                        <path class="typst-shape" fill="none" transform="matrix(1 0 0 1 34.1003937007874 33.093893700787405)" d="M 0 0m 0 -0.0000000000000062941777 h 5.5 v 7.513 h -5.5 v -7.513 Z "/>
                        <g class="typst-group">
                            <g>
                                <g class="typst-group" transform="matrix(1 0 0 1 34.100393669291336 33.09389362204724)">
                                    <g>
                                        <g class="typst-text" transform="matrix(1 0 0 -1 0 7.513000000000001)">
                                            <use xlink:href="#gE3B8419E3AED68C6523252888B242B6B" x="0" y="0" fill="#000000" fill-rule="nonzero"/>
                                        </g>
                                    </g>
                                </g>
                            </g>
                        </g>
                        <path class="typst-shape" fill="none" stroke="#000000" stroke-width="1" stroke-linecap="butt" stroke-linejoin="miter" stroke-miterlimit="4" transform="matrix(1 0 0 1 56.69291338582677 56.69291338582677)" d="M 0 0m 8.503937 -0.0000000000000062941777 c -4.692336 0 -8.503937 3.8116007 -8.503937 8.503937 c 0 4.692337 3.8116007 8.503937 8.503937 8.503937 c 4.692337 0 8.503937 -3.8115997 8.503937 -8.503937 c 0 -4.692336 -3.8115997 -8.503937 -8.503937 -8.503937 Z "/>
                        <path class="typst-shape" fill="none" transform="matrix(1 0 0 1 62.446850393700785 61.31935039370078)" d="M 0 0h 5.5 v 7.755 h -5.5 v -7.755 Z "/>
                        <g class="typst-group">
                            <g>
                                <g class="typst-group" transform="matrix(1 0 0 1 62.44685036220472 61.31935034645669)">
                                    <g>
                                        <g class="typst-text" transform="matrix(1 0 0 -1 0 7.513000000000001)">
                                            <use xlink:href="#gB3CC27FA05E47AC88CC5D6191C875821" x="0" y="0" fill="#000000" fill-rule="nonzero"/>
                                        </g>
                                    </g>
                                </g>
                            </g>
                        </g>
                        <path class="typst-shape" fill="none" stroke="#000000" stroke-width="1" stroke-linecap="butt" stroke-linejoin="miter" stroke-miterlimit="4" transform="matrix(1 0 0 1 85.03937007874016 85.03937007874016)" d="M 0 0m 8.503937 0 c -4.692336 0 -8.503937 3.8116007 -8.503937 8.503937 c 0 4.692337 3.8116007 8.503937 8.503937 8.503937 c 4.692337 0 8.503937 -3.8115997 8.503937 -8.503937 c 0 -4.692336 -3.8115997 -8.503937 -8.503937 -8.503937 Z "/>
                        <path class="typst-shape" fill="none" transform="matrix(1 0 0 1 90.79330708661418 89.78680708661416)" d="M 0 0h 5.5 v 7.513 h -5.5 v -7.513 Z "/>
                        <g class="typst-group">
                            <g>
                                <g class="typst-group" transform="matrix(1 0 0 1 90.79330705511812 89.78680700787402)">
                                    <g>
                                        <g class="typst-text" transform="matrix(1 0 0 -1 0 7.513000000000001)">
                                            <use xlink:href="#g6775D2C94F1577D71D4D8099022C88E2" x="0" y="0" fill="#000000" fill-rule="nonzero"/>
                                        </g>
                                    </g>
                                </g>
                            </g>
                        </g>
                        <path class="typst-shape" fill="none" transform="matrix(1 0 0 1 113.38582677165354 113.38582677165354)" d="M 0 0m 8.503937 0 c -4.692336 0 -8.503937 3.8116007 -8.503937 8.503937 c 0 4.692337 3.8116007 8.503937 8.503937 8.503937 c 4.692337 0 8.503937 -3.8115997 8.503937 -8.503937 c 0 -4.692336 -3.8115997 -8.503937 -8.503937 -8.503937 Z "/>
                        <path class="typst-shape" fill="none" transform="matrix(1 0 0 1 118.51826377952756 118.13326377952755)" d="M 0 0h 6.743 v 7.513 h -6.743 v -7.513 Z "/>
                        <g class="typst-group">
                            <g>
                                <g class="typst-group" transform="matrix(1 0 0 1 118.51826371653544 118.1332637007874)">
                                    <g>
                                        <g class="typst-text" transform="matrix(1 0 0 -1 0 7.513000000000001)">
                                            <use xlink:href="#gCEF3B10F4E3DB2EE68BB127859466CD1" x="0" y="0" fill="#000000" fill-rule="nonzero"/>
                                        </g>
                                    </g>
                                </g>
                            </g>
                        </g>
                        <path class="typst-shape" fill="none" stroke="#000000" stroke-width="1" stroke-linecap="butt" stroke-linejoin="miter" stroke-miterlimit="4" transform="matrix(1 0 0 1 141.73228346456693 141.73228346456693)" d="M 0 0m 8.503937 0 c -4.692336 0 -8.503937 3.8116007 -8.503937 8.503937 c 0 4.692337 3.8116007 8.503937 8.503937 8.503937 c 4.692337 0 8.503937 -3.8115997 8.503937 -8.503937 c 0 -4.692336 -3.8115997 -8.503937 -8.503937 -8.503937 Z "/>
                        <path class="typst-shape" fill="none" transform="matrix(1 0 0 1 146.93622047244094 146.41922047244094)" d="M 0 0h 6.6 v 7.634 h -6.6 v -7.634 Z "/>
                        <g class="typst-group">
                            <g>
                                <g class="typst-group" transform="matrix(1 0 0 1 146.93622037795276 146.4192204094488)">
                                    <g>
                                        <g class="typst-text" transform="matrix(1 0 0 -1 0 7.513000000000001)">
                                            <use xlink:href="#gD7E98AA91C58CED4ED863F567E975BE0" x="0" y="0" fill="#000000" fill-rule="nonzero"/>
                                        </g>
                                    </g>
                                </g>
                            </g>
                        </g>
                        <path class="typst-shape" fill="none" stroke="#000000" stroke-width="1" stroke-linecap="butt" stroke-linejoin="miter" stroke-miterlimit="4" transform="matrix(1 0 0 1 14.515531653543304 14.515531653543308)" d="M 0 0m 0 -0.0000000000000031470889 l 16.323267 16.323267 "/>
                        <path class="typst-shape" fill="none" stroke="#000000" stroke-width="1" stroke-linecap="butt" stroke-linejoin="miter" stroke-miterlimit="4" transform="matrix(1 0 0 1 42.861988346456705 42.86198834645669)" d="M 0 0m 0 -0.0000000000000062941777 l 16.323267 16.323267 "/>
                        <path class="typst-shape" fill="none" stroke="#000000" stroke-width="1" stroke-linecap="butt" stroke-linejoin="miter" stroke-miterlimit="4" transform="matrix(1 0 0 1 71.20844503937008 71.20844503937009)" d="M 0 0l 16.323267 16.323267 "/>
                        <path class="typst-shape" fill="none" stroke="#000000" stroke-width="1" stroke-linecap="butt" stroke-linejoin="miter" stroke-miterlimit="4" transform="matrix(1 0 0 1 99.55490173228344 99.55490173228345)" d="M 0 0l 16.323267 16.323267 "/>
                        <path class="typst-shape" fill="none" stroke="#000000" stroke-width="1" stroke-linecap="butt" stroke-linejoin="miter" stroke-miterlimit="4" transform="matrix(1 0 0 1 127.90135842519685 127.90135842519685)" d="M 0 0l 16.323267 16.323267 "/>
                    </g>
                </g>
            </g>
        </g>
    </g>
    <defs id="glyph">
        <symbol id="g62ADD22BD523EFE963483FAC83E768AF" overflow="visible">
            <path d="M 0 0m 2.9589999 7.3259997 c -0.45099998 -0.4619999 -1.1109998 -0.69299984 -1.9799999 -0.69299984 v -0.4289999 c 0.572 0 1.045 0.08799982 1.4080001 0.26399994 v -5.566 c 0 -0.19800001 -0.04400015 -0.32999998 -0.14300013 -0.385 c -0.09899998 -0.055000007 -0.37399995 -0.08800003 -0.814 -0.08800003 h -0.385 v -0.429 c 0.27499998 0.022 0.8690001 0.033 1.782 0.033 c 0.9130001 0 1.5070002 -0.011 1.7820003 -0.033 v 0.429 h -0.38500023 c -0.45099998 0 -0.7260001 0.033000022 -0.8139999 0.08800003 c -0.08800006 0.055000007 -0.14300013 0.18699998 -0.14300013 0.385 v 6.094 c 0 0.26399994 -0.022000074 0.32999992 -0.3080001 0.32999992 Z "/>
        </symbol>
        <symbol id="gE3B8419E3AED68C6523252888B242B6B" overflow="visible">
            <path d="M 0 0m 2.6069999 7.3259997 c -0.5609999 0 -1.0339999 -0.19799995 -1.4409999 -0.59399986 c -0.407 -0.3959999 -0.616 -0.8579998 -0.616 -1.4189997 c 0 -0.37400007 0.27499998 -0.64900017 0.616 -0.64900017 c 0.33000004 0 0.605 0.28599977 0.605 0.6159997 c 0 0.3630004 -0.26400006 0.6160002 -0.61600006 0.6160002 c -0.032999992 0 -0.054999948 0 -0.07700002 -0.011000156 c 0.20899999 0.53900003 0.6930001 1.0120001 1.386 1.0120001 c 0.90199995 0 1.408 -0.78099966 1.408 -1.7269998 c 0 -0.737 -0.37400007 -1.529 -1.122 -2.365 l -2.068 -2.332 c -0.143 -0.16499999 -0.13199997 -0.15399998 -0.13199997 -0.473 h 4.081 l 0.31899977 1.98 h -0.36299992 c -0.08799982 -0.561 -0.16499996 -0.88 -0.23099995 -0.979 c -0.05499983 -0.055000067 -0.385 -0.07700002 -0.99 -0.07700002 h -1.8369999 l 1.0669999 1.045 c 0.7479999 0.7040001 1.694 1.4629999 2.0130002 2.046 c 0.21999979 0.38500023 0.32999992 0.77 0.32999992 1.1550002 c 0 1.2979999 -1.0120001 2.1559997 -2.3320003 2.1559997 Z "/>
        </symbol>
        <symbol id="gB3CC27FA05E47AC88CC5D6191C875821" overflow="visible">
            <path d="M 0 0m 3.333 3.883 c 0.7260001 0.2750001 1.4080002 0.96799994 1.4080002 1.9029999 c 0 0.47300005 -0.23100042 0.8580003 -0.68200016 1.1550002 c -0.39600015 0.25299978 -0.8470001 0.38499975 -1.3529999 0.38499975 c -0.49500012 0 -0.92400014 -0.13199997 -1.3090001 -0.38499975 c -0.42899996 -0.28600025 -0.6489999 -0.65999985 -0.6489999 -1.1329999 c 0 -0.36299992 0.24199998 -0.6160002 0.594 -0.6160002 c 0.352 0 0.594 0.25300026 0.594 0.605 c 0 0.36299992 -0.20899999 0.5609999 -0.627 0.5830002 c 0.286 0.38499975 0.737 0.5829997 1.3529999 0.5829997 c 0.6600001 0 0.99 -0.38499975 0.99 -1.1659999 c 0 -0.4619999 -0.08800006 -0.8470001 -0.25300002 -1.1659999 c -0.29699993 -0.5279999 -0.704 -0.62699986 -1.3859999 -0.62699986 c -0.13199997 -0.022000313 -0.19800007 -0.07700014 -0.19800007 -0.17600012 c 0 -0.1650002 0.07700002 -0.1650002 0.29700005 -0.1650002 h 0.47300005 c 0.82500005 0 1.243 -0.58299994 1.243 -1.7599999 c 0 -0.935 -0.34100008 -1.749 -1.177 -1.749 c -0.71500003 0 -1.243 0.242 -1.562 0.726 c 0.385 -0.010999978 0.671 0.27499998 0.671 0.64900005 c 0 0.37399995 -0.27499998 0.6489999 -0.64900005 0.6489999 c -0.42899996 0 -0.6489999 -0.22000003 -0.6489999 -0.671 c 0 -0.539 0.24199998 -0.968 0.72599995 -1.309 c 0.42900002 -0.297 0.93499994 -0.44 1.496 -0.44 c 0.62699986 0 1.1659999 0.20899999 1.6389999 0.616 c 0.47300005 0.407 0.704 0.9129999 0.704 1.529 c 0 1.034 -0.8140001 1.749 -1.694 1.9799999 Z "/>
        </symbol>
        <symbol id="g6775D2C94F1577D71D4D8099022C88E2" overflow="visible">
            <path d="M 0 0m 3.883 7.447 c -0.09899998 0 -0.1869998 -0.05499983 -0.25300002 -0.15400028 l -3.3219998 -5.104 v -0.3959999 h 2.8709998 v -0.902 c 0 -0.19799995 -0.04399991 -0.32999998 -0.12099981 -0.385 c -0.07700014 -0.054999977 -0.286 -0.07699999 -0.64900017 -0.07699999 h -0.27499986 v -0.429 c 0.319 0.022 0.8249998 0.033 1.507 0.033 c 0.6819999 0 1.188 -0.011 1.5069997 -0.033 v 0.429 h -0.27499962 c -0.3630004 0 -0.572 0.022000015 -0.64900017 0.07699999 c -0.07700014 0.055000007 -0.12099981 0.18700004 -0.12099981 0.385 v 0.902 h 1.0779996 v 0.4289999 h -1.0779996 v 5.038 c 0 0.11000013 -0.07700014 0.18700027 -0.22000027 0.18700027 Z m -0.638 -1.3639998 v -3.8610003 h -2.508 Z "/>
        </symbol>
        <symbol id="gCEF3B10F4E3DB2EE68BB127859466CD1" overflow="visible">
            <path d="M 0 0m 6.127 0.616 c 0 0.34100002 -0.2750001 0.616 -0.6159997 0.616 c -0.35200024 0 -0.6160002 -0.264 -0.6160002 -0.616 c 0 -0.341 0.2750001 -0.616 0.6160002 -0.616 c 0.35199976 0 0.6159997 0.264 0.6159997 0.616 Z m -4.2679996 4.2679996 c 0 0.32999992 -0.286 0.6160002 -0.61599994 0.6160002 c -0.35200006 0 -0.61600006 -0.26399994 -0.61600006 -0.6160002 c 0 -0.34100008 0.27500004 -0.6159997 0.61600006 -0.6159997 c 0.352 0 0.61599994 0.26399994 0.61599994 0.6159997 Z m 2.134 -2.1339998 c 0 0.32999992 -0.286 0.61599994 -0.61599994 0.61599994 c -0.33000016 0 -0.6160002 -0.286 -0.6160002 -0.61599994 c 0 -0.32999992 0.286 -0.61599994 0.6160002 -0.61599994 c 0.32999992 0 0.61599994 0.286 0.61599994 0.61599994 Z "/>
        </symbol>
        <symbol id="gD7E98AA91C58CED4ED863F567E975BE0" overflow="visible">
            <path d="M 0 0m 5.907 1.507 c -0.25300026 -0.86899996 -0.6160002 -1.309 -1.0669999 -1.309 c -0.14300013 0 -0.22000027 0.11 -0.22000027 0.319 c 0 0.15399998 0.065999985 0.407 0.19799995 0.74799997 c 0.44000006 1.199 0.6600003 1.991 0.6600003 2.3979998 c 0 0.7700002 -0.5170002 1.1990001 -1.2870002 1.1990001 c -0.6489999 0 -1.21 -0.28599977 -1.661 -0.86899996 c -0.08800006 0.48399973 -0.47300005 0.86899996 -1.0339999 0.86899996 c -0.61600006 0 -0.85800004 -0.572 -1.0120001 -1.0669999 c -0.109999985 -0.352 -0.16499999 -0.5610001 -0.16499999 -0.638 c 0 -0.09899998 0.055000007 -0.15400004 0.176 -0.15400004 c 0.055000007 0 0.088 0.010999918 0.12099999 0.032999992 c 0.055000007 0.09899998 0.088 0.17599988 0.09899998 0.25300002 c 0.19800001 0.83599997 0.45100003 1.2539997 0.74799997 1.2539997 c 0.19800007 0 0.29700005 -0.1539998 0.29700005 -0.4619999 c 0 -0.14299989 -0.054999948 -0.43999982 -0.176 -0.8909998 l -0.627 -2.497 c -0.032999992 -0.143 -0.09900004 -0.42900002 -0.09900004 -0.48400003 c 0 -0.22 0.12099999 -0.32999998 0.36299998 -0.32999998 c 0.20899999 0 0.36300004 0.11 0.44000006 0.32999998 c 0.021999955 0.055000007 0.08799994 0.32999998 0.20899999 0.803 l 0.23100007 0.979 l 0.32999992 1.254 c 0.12100005 0.25300002 0.3080001 0.50600004 0.53900003 0.77 c 0.319 0.35200024 0.7149999 0.5279999 1.188 0.5279999 c 0.36299992 0 0.53900003 -0.24199963 0.53900003 -0.7149997 c 0 -0.41799998 -0.23099995 -1.2540002 -0.704 -2.5080001 c -0.07700014 -0.19799995 -0.11000013 -0.36299992 -0.11000013 -0.5059999 c 0 -0.53900003 0.40700006 -0.935 0.93499994 -0.935 c 0.4840002 0 0.86899996 0.275 1.144 0.825 c 0.20900011 0.44000006 0.31900024 0.737 0.31900024 0.88 c 0 0.09899998 -0.055000305 0.15400004 -0.17600012 0.15400004 c -0.032999992 0 -0.19799995 -0.0990001 -0.19799995 -0.23100007 Z "/>
        </symbol>
    </defs>
</svg>
