<svg class="typst-doc" viewBox="0 0 136.06299212598427 107.71653543307085" width="136.06299212598427pt" height="107.71653543307085pt" xmlns="http://www.w3.org/2000/svg" xmlns:xlink="http://www.w3.org/1999/xlink" xmlns:h5="http://www.w3.org/1999/xhtml">
    <path class="typst-shape" fill="#ffffff" fill-rule="nonzero" d="M 0 0v 107.71654 h 136.06299 v -107.71654 Z "/>
    <g>
        <g class="typst-group" transform="matrix(1 0 0 1 2.8346456692913384 2.8346456692913384)">
            <g>
                <path class="typst-shape" fill="none" stroke="#000000" stroke-width="1" stroke-linecap="butt" stroke-linejoin="miter" stroke-miterlimit="4" transform="matrix(1 0 0 1 56.69291338582676 0)" d="M 0 0m 8.503937 -0.000000000000004720633 c -4.692336 0 -8.503937 3.8116007 -8.503937 8.503937 c 0 4.692337 3.8116007 8.503937 8.503937 8.503937 c 4.692337 0 8.503937 -3.8115997 8.503937 -8.503937 c 0 -4.692336 -3.8115997 -8.503937 -8.503937 -8.503937 Z "/>
                <path class="typst-shape" fill="none" transform="matrix(1 0 0 1 62.446850393700785 4.747437007874016)" d="M 0 0m 0 -0.000000000000004720633 h 5.5 v 7.513 h -5.5 v -7.513 Z "/>
                <g class="typst-group">
                    <g>
                        <g class="typst-group" transform="matrix(1 0 0 1 62.44685036220472 4.747436929133852)">
                            <g>
                                <g class="typst-text" transform="matrix(1 0 0 -1 0 7.513000000000001)">
                                    <use xlink:href="#g62ADD22BD523EFE963483FAC83E768AF" x="0" y="0" fill="#000000" fill-rule="nonzero"/>
                                </g>
                            </g>
                        </g>
                    </g>
                </g>
                <path class="typst-shape" fill="none" stroke="#000000" stroke-width="1" stroke-linecap="butt" stroke-linejoin="miter" stroke-miterlimit="4" transform="matrix(1 0 0 1 28.346456692913378 28.346456692913385)" d="M 0 0m 8.503937 -0.0000000000000062941777 c -4.692336 0 -8.503937 3.8116007 -8.503937 8.503937 c 0 4.692337 3.8116007 8.503937 8.503937 8.503937 c 4.692337 0 8.503937 -3.8115997 8.503937 -8.503937 c 0 -4.692336 -3.8115997 -8.503937 -8.503937 -8.503937 Z "/>
                <path class="typst-shape" fill="none" transform="matrix(1 0 0 1 34.10039370078739 33.093893700787405)" d="M 0 0m 0 -0.0000000000000062941777 h 5.5 v 7.513 h -5.5 v -7.513 Z "/>
                <g class="typst-group">
                    <g>
                        <g class="typst-group" transform="matrix(1 0 0 1 34.10039366929133 33.09389362204724)">
                            <g>
                                <g class="typst-text" transform="matrix(1 0 0 -1 0 7.513000000000001)">
                                    <use xlink:href="#gE3B8419E3AED68C6523252888B242B6B" x="0" y="0" fill="#000000" fill-rule="nonzero"/>
                                </g>
                            </g>
                        </g>
                    </g>
                </g>
                <path class="typst-shape" fill="none" stroke="#000000" stroke-width="1" stroke-linecap="butt" stroke-linejoin="miter" stroke-miterlimit="4" transform="matrix(1 0 0 1 0 56.69291338582677)" d="M 0 0m 8.503937 -0.0000000000000062941777 c -4.692336 0 -8.503937 3.8116007 -8.503937 8.503937 c 0 4.692337 3.8116007 8.503937 8.503937 8.503937 c 4.692337 0 8.503937 -3.8115997 8.503937 -8.503937 c 0 -4.692336 -3.8115997 -8.503937 -8.503937 -8.503937 Z "/>
                <path class="typst-shape" fill="none" transform="matrix(1 0 0 1 5.753937007874015 61.31935039370078)" d="M 0 0h 5.5 v 7.755 h -5.5 v -7.755 Z "/>
                <g class="typst-group">
                    <g>
                        <g class="typst-group" transform="matrix(1 0 0 1 5.753936976377948 61.31935034645669)">
                            <g>
                                <g class="typst-text" transform="matrix(1 0 0 -1 0 7.513000000000001)">
                                    <use xlink:href="#gB3CC27FA05E47AC88CC5D6191C875821" x="0" y="0" fill="#000000" fill-rule="nonzero"/>
                                </g>
                            </g>
                        </g>
                    </g>
                </g>
                <path class="typst-shape" fill="none" stroke="#000000" stroke-width="1" stroke-linecap="butt" stroke-linejoin="miter" stroke-miterlimit="4" transform="matrix(1 0 0 1 28.346456692913378 56.69291338582677)" d="M 0 0m 8.503937 -0.0000000000000062941777 c -4.692336 0 -8.503937 3.8116007 -8.503937 8.503937 c 0 4.692337 3.8116007 8.503937 8.503937 8.503937 c 4.692337 0 8.503937 -3.8115997 8.503937 -8.503937 c 0 -4.692336 -3.8115997 -8.503937 -8.503937 -8.503937 Z "/>
                <path class="typst-shape" fill="none" transform="matrix(1 0 0 1 34.10039370078739 61.44035039370078)" d="M 0 0h 5.5 v 7.513 h -5.5 v -7.513 Z "/>
                <g class="typst-group">
                    <g>
                        <g class="typst-group" transform="matrix(1 0 0 1 34.10039366929133 61.44035031496063)">
                            <g>
                                <g class="typst-text" transform="matrix(1 0 0 -1 0 7.513000000000001)">
                                    <use xlink:href="#g6775D2C94F1577D71D4D8099022C88E2" x="0" y="0" fill="#000000" fill-rule="nonzero"/>
                                </g>
                            </g>
                        </g>
                    </g>
                </g>
                <path class="typst-shape" fill="none" stroke="#000000" stroke-width="1" stroke-linecap="butt" stroke-linejoin="miter" stroke-miterlimit="4" transform="matrix(1 0 0 1 56.69291338582676 56.69291338582677)" d="M 0 0m 8.503937 -0.0000000000000062941777 c -4.692336 0 -8.503937 3.8116007 -8.503937 8.503937 c 0 4.692337 3.8116007 8.503937 8.503937 8.503937 c 4.692337 0 8.503937 -3.8115997 8.503937 -8.503937 c 0 -4.692336 -3.8115997 -8.503937 -8.503937 -8.503937 Z "/>
                <path class="typst-shape" fill="none" transform="matrix(1 0 0 1 62.446850393700785 61.31935039370078)" d="M 0 0h 5.5 v 7.755 h -5.5 v -7.755 Z "/>
                <g class="typst-group">
                    <g>
                        <g class="typst-group" transform="matrix(1 0 0 1 62.44685036220472 61.31935034645669)">
                            <g>
                                <g class="typst-text" transform="matrix(1 0 0 -1 0 7.513000000000001)">
                                    <use xlink:href="#g76CC6AC8A8B03ED32F515502BB36606E" x="0" y="0" fill="#000000" fill-rule="nonzero"/>
                                </g>
                            </g>
                        </g>
                    </g>
                </g>
                <path class="typst-shape" fill="none" stroke="#000000" stroke-width="1" stroke-linecap="butt" stroke-linejoin="miter" stroke-miterlimit="4" transform="matrix(1 0 0 1 99.21259842519684 28.346456692913385)" d="M 0 0m 8.503937 -0.0000000000000062941777 c -4.692336 0 -8.503937 3.8116007 -8.503937 8.503937 c 0 4.692337 3.8116007 8.503937 8.503937 8.503937 c 4.692337 0 8.503937 -3.8115997 8.503937 -8.503937 c 0 -4.692336 -3.8115997 -8.503937 -8.503937 -8.503937 Z "/>
                <path class="typst-shape" fill="none" transform="matrix(1 0 0 1 104.96653543307085 32.9728937007874)" d="M 0 0m 0 -0.0000000000000062941777 h 5.5 v 7.755 h -5.5 v -7.755 Z "/>
                <g class="typst-group">
                    <g>
                        <g class="typst-group" transform="matrix(1 0 0 1 104.9665354015748 32.972893653543295)">
                            <g>
                                <g class="typst-text" transform="matrix(1 0 0 -1 0 7.513000000000001)">
                                    <use xlink:href="#gDFF74FCC01E990555ABFEFC545559C8F" x="0" y="0" fill="#000000" fill-rule="nonzero"/>
                                </g>
                            </g>
                        </g>
                    </g>
                </g>
                <path class="typst-shape" fill="none" stroke="#000000" stroke-width="1" stroke-linecap="butt" stroke-linejoin="miter" stroke-miterlimit="4" transform="matrix(1 0 0 1 85.03937007874016 56.69291338582677)" d="M 0 0m 8.503937 -0.0000000000000062941777 c -4.692336 0 -8.503937 3.8116007 -8.503937 8.503937 c 0 4.692337 3.8116007 8.503937 8.503937 8.503937 c 4.692337 0 8.503937 -3.8115997 8.503937 -8.503937 c 0 -4.692336 -3.8115997 -8.503937 -8.503937 -8.503937 Z "/>
                <path class="typst-shape" fill="none" transform="matrix(1 0 0 1 90.72180708661418 61.31935039370078)" d="M 0 0h 5.643 v 7.755 h -5.643 v -7.755 Z "/>
                <g class="typst-group">
                    <g>
                        <g class="typst-group" transform="matrix(1 0 0 1 90.72180708661418 61.31935034645669)">
                            <g>
                                <g class="typst-text" transform="matrix(1 0 0 -1 0 7.513000000000001)">
                                    <use xlink:href="#gB90EC829F5BFC81BEC5B36D533FF9496" x="0" y="0" fill="#000000" fill-rule="nonzero"/>
                                </g>
                            </g>
                        </g>
                    </g>
                </g>
                <path class="typst-shape" fill="none" stroke="#000000" stroke-width="1" stroke-linecap="butt" stroke-linejoin="miter" stroke-miterlimit="4" transform="matrix(1 0 0 1 113.38582677165354 56.69291338582677)" d="M 0 0m 8.503937 -0.0000000000000062941777 c -4.692336 0 -8.503937 3.8116007 -8.503937 8.503937 c 0 4.692337 3.8116007 8.503937 8.503937 8.503937 c 4.692337 0 8.503937 -3.8115997 8.503937 -8.503937 c 0 -4.692336 -3.8115997 -8.503937 -8.503937 -8.503937 Z "/>
                <path class="typst-shape" fill="none" transform="matrix(1 0 0 1 116.38976377952756 61.44035039370078)" d="M 0 0h 11 v 7.513 h -11 v -7.513 Z "/>
                <g class="typst-group">
                    <g>
                        <g class="typst-group" transform="matrix(1 0 0 1 116.38976371653543 61.44035031496063)">
                            <g>
                                <g class="typst-text" transform="matrix(1 0 0 -1 0 7.513000000000001)">
                                    <use xlink:href="#g62ADD22BD523EFE963483FAC83E768AF" x="0" y="0" fill="#000000" fill-rule="nonzero"/>
                                </g>
                                <g class="typst-text" transform="matrix(1 0 0 -1 5.5 7.513000000000001)">
                                    <use xlink:href="#g62ADD22BD523EFE963483FAC83E768AF" x="0" y="0" fill="#000000" fill-rule="nonzero"/>
                                </g>
                            </g>
                        </g>
                    </g>
                </g>
                <path class="typst-shape" fill="none" stroke="#000000" stroke-width="1" stroke-linecap="butt" stroke-linejoin="miter" stroke-miterlimit="4" transform="matrix(1 0 0 1 42.519685039370074 85.03937007874016)" d="M 0 0m 8.503937 0 c -4.692336 0 -8.503937 3.8116007 -8.503937 8.503937 c 0 4.692337 3.8116007 8.503937 8.503937 8.503937 c 4.692337 0 8.503937 -3.8115997 8.503937 -8.503937 c 0 -4.692336 -3.8115997 -8.503937 -8.503937 -8.503937 Z "/>
                <path class="typst-shape" fill="none" transform="matrix(1 0 0 1 48.273622047244096 89.66580708661417)" d="M 0 0h 5.5 v 7.755 h -5.5 v -7.755 Z "/>
                <g class="typst-group">
                    <g>
                        <g class="typst-group" transform="matrix(1 0 0 1 48.27362201574802 89.66580703937008)">
                            <g>
                                <g class="typst-text" transform="matrix(1 0 0 -1 0 7.513000000000001)">
                                    <use xlink:href="#g93E4F1310346FC3FC8401208100EF4F1" x="0" y="0" fill="#000000" fill-rule="nonzero"/>
                                </g>
                            </g>
                        </g>
                    </g>
                </g>
                <path class="typst-shape" fill="none" stroke="#000000" stroke-width="1" stroke-linecap="butt" stroke-linejoin="miter" stroke-miterlimit="4" transform="matrix(1 0 0 1 70.86614173228347 85.03937007874016)" d="M 0 0m 8.503937 0 c -4.692336 0 -8.503937 3.8116007 -8.503937 8.503937 c 0 4.692337 3.8116007 8.503937 8.503937 8.503937 c 4.692337 0 8.503937 -3.8115997 8.503937 -8.503937 c 0 -4.692336 -3.8115997 -8.503937 -8.503937 -8.503937 Z "/>
                <path class="typst-shape" fill="none" transform="matrix(1 0 0 1 76.62007874015748 89.66580708661417)" d="M 0 0h 5.5 v 7.755 h -5.5 v -7.755 Z "/>
                <g class="typst-group">
                    <g>
                        <g class="typst-group" transform="matrix(1 0 0 1 76.62007870866142 89.66580703937008)">
                            <g>
                                <g class="typst-text" transform="matrix(1 0 0 -1 0 7.513000000000001)">
                                    <use xlink:href="#g273FFD957F5D14136D618FFDC5D4AE51" x="0" y="0" fill="#000000" fill-rule="nonzero"/>
                                </g>
                            </g>
                        </g>
                    </g>
                </g>
                <path class="typst-shape" fill="none" stroke="#000000" stroke-width="1" stroke-linecap="butt" stroke-linejoin="miter" stroke-miterlimit="4" transform="matrix(1 0 0 1 0 85.03937007874016)" d="M 0 0m 8.503937 0 c -4.692336 0 -8.503937 3.8116007 -8.503937 8.503937 c 0 4.692337 3.8116007 8.503937 8.503937 8.503937 c 4.692337 0 8.503937 -3.8115997 8.503937 -8.503937 c 0 -4.692336 -3.8115997 -8.503937 -8.503937 -8.503937 Z "/>
                <path class="typst-shape" fill="none" transform="matrix(1 0 0 1 3.003937007874007 89.66580708661417)" d="M 0 0h 11 v 7.755 h -11 v -7.755 Z "/>
                <g class="typst-group">
                    <g>
                        <g class="typst-group" transform="matrix(1 0 0 1 3.003936944881884 89.66580703937008)">
                            <g>
                                <g class="typst-text" transform="matrix(1 0 0 -1 0 7.513000000000001)">
                                    <use xlink:href="#g62ADD22BD523EFE963483FAC83E768AF" x="0" y="0" fill="#000000" fill-rule="nonzero"/>
                                </g>
                                <g class="typst-text" transform="matrix(1 0 0 -1 5.5 7.513000000000001)">
                                    <use xlink:href="#g7DFEDDCD08E45120CE465D554C42A1DB" x="0" y="0" fill="#000000" fill-rule="nonzero"/>
                                </g>
                            </g>
                        </g>
                    </g>
                </g>
                <path class="typst-shape" fill="none" stroke="#000000" stroke-width="1" stroke-linecap="butt" stroke-linejoin="miter" stroke-miterlimit="4" transform="matrix(1 0 0 1 42.8619883464567 14.515531653543304)" d="M 0 0m 16.323267 -0.0000000000000031470889 l -16.323267 16.323267 "/>
                <path class="typst-shape" fill="none" stroke="#000000" stroke-width="1" stroke-linecap="butt" stroke-linejoin="miter" stroke-miterlimit="4" transform="matrix(1 0 0 1 72.27166906039216 13.220482785668274)" d="M 0 0m 0 -0.0000000000000031470889 l 28.370049 18.913364 "/>
                <path class="typst-shape" fill="none" stroke="#000000" stroke-width="1" stroke-linecap="butt" stroke-linejoin="miter" stroke-miterlimit="4" transform="matrix(1 0 0 1 14.515531653543295 42.861988346456705)" d="M 0 0m 16.323267 -0.0000000000000062941777 l -16.323267 16.323267 "/>
                <path class="typst-shape" fill="none" stroke="#000000" stroke-width="1" stroke-linecap="butt" stroke-linejoin="miter" stroke-miterlimit="4" transform="matrix(1 0 0 1 36.850393700787386 45.354330708661415)" d="M 0 0m 0 -0.0000000000000062941777 l 0.0000000000000062941777 11.338583 "/>
                <path class="typst-shape" fill="none" stroke="#000000" stroke-width="1" stroke-linecap="butt" stroke-linejoin="miter" stroke-miterlimit="4" transform="matrix(1 0 0 1 42.861988346456684 42.861988346456705)" d="M 0 0m 0 -0.0000000000000062941777 l 16.323267 16.323267 "/>
                <path class="typst-shape" fill="none" stroke="#000000" stroke-width="1" stroke-linecap="butt" stroke-linejoin="miter" stroke-miterlimit="4" transform="matrix(1 0 0 1 97.34653376434652 44.45684705625209)" d="M 0 0m 6.566775 -0.0000000000000062941777 l -6.566775 13.13355 "/>
                <path class="typst-shape" fill="none" stroke="#000000" stroke-width="1" stroke-linecap="butt" stroke-linejoin="miter" stroke-miterlimit="4" transform="matrix(1 0 0 1 111.51976211080323 44.45684705625209)" d="M 0 0m 0 -0.0000000000000062941777 l 6.566775 13.13355 "/>
                <path class="typst-shape" fill="none" stroke="#000000" stroke-width="1" stroke-linecap="butt" stroke-linejoin="miter" stroke-miterlimit="4" transform="matrix(1 0 0 1 8.50393700787401 73.70078740157479)" d="M 0 0v 11.338583 "/>
                <path class="typst-shape" fill="none" stroke="#000000" stroke-width="1" stroke-linecap="butt" stroke-linejoin="miter" stroke-miterlimit="4" transform="matrix(1 0 0 1 54.826848724976436 72.80330374916547)" d="M 0 0m 6.566775 0 l -6.566775 13.13355 "/>
                <path class="typst-shape" fill="none" stroke="#000000" stroke-width="1" stroke-linecap="butt" stroke-linejoin="miter" stroke-miterlimit="4" transform="matrix(1 0 0 1 69.00007707143311 72.80330374916545)" d="M 0 0l 6.566775 13.13355 "/>
            </g>
        </g>
    </g>
    <defs id="glyph">
        <symbol id="g62ADD22BD523EFE963483FAC83E768AF" overflow="visible">
            <path d="M 0 0m 2.9589999 7.3259997 c -0.45099998 -0.4619999 -1.1109998 -0.69299984 -1.9799999 -0.69299984 v -0.4289999 c 0.572 0 1.045 0.08799982 1.4080001 0.26399994 v -5.566 c 0 -0.19800001 -0.04400015 -0.32999998 -0.14300013 -0.385 c -0.09899998 -0.055000007 -0.37399995 -0.08800003 -0.814 -0.08800003 h -0.385 v -0.429 c 0.27499998 0.022 0.8690001 0.033 1.782 0.033 c 0.9130001 0 1.5070002 -0.011 1.7820003 -0.033 v 0.429 h -0.38500023 c -0.45099998 0 -0.7260001 0.033000022 -0.8139999 0.08800003 c -0.08800006 0.055000007 -0.14300013 0.18699998 -0.14300013 0.385 v 6.094 c 0 0.26399994 -0.022000074 0.32999992 -0.3080001 0.32999992 Z "/>
        </symbol>
        <symbol id="gE3B8419E3AED68C6523252888B242B6B" overflow="visible">
            <path d="M 0 0m 2.6069999 7.3259997 c -0.5609999 0 -1.0339999 -0.19799995 -1.4409999 -0.59399986 c -0.407 -0.3959999 -0.616 -0.8579998 -0.616 -1.4189997 c 0 -0.37400007 0.27499998 -0.64900017 0.616 -0.64900017 c 0.33000004 0 0.605 0.28599977 0.605 0.6159997 c 0 0.3630004 -0.26400006 0.6160002 -0.61600006 0.6160002 c -0.032999992 0 -0.054999948 0 -0.07700002 -0.011000156 c 0.20899999 0.53900003 0.6930001 1.0120001 1.386 1.0120001 c 0.90199995 0 1.408 -0.78099966 1.408 -1.7269998 c 0 -0.737 -0.37400007 -1.529 -1.122 -2.365 l -2.068 -2.332 c -0.143 -0.16499999 -0.13199997 -0.15399998 -0.13199997 -0.473 h 4.081 l 0.31899977 1.98 h -0.36299992 c -0.08799982 -0.561 -0.16499996 -0.88 -0.23099995 -0.979 c -0.05499983 -0.055000067 -0.385 -0.07700002 -0.99 -0.07700002 h -1.8369999 l 1.0669999 1.045 c 0.7479999 0.7040001 1.694 1.4629999 2.0130002 2.046 c 0.21999979 0.38500023 0.32999992 0.77 0.32999992 1.1550002 c 0 1.2979999 -1.0120001 2.1559997 -2.3320003 2.1559997 Z "/>
        </symbol>
        <symbol id="gB3CC27FA05E47AC88CC5D6191C875821" overflow="visible">
            <path d="M 0 0m 3.333 3.883 c 0.7260001 0.2750001 1.4080002 0.96799994 1.4080002 1.9029999 c 0 0.47300005 -0.23100042 0.8580003 -0.68200016 1.1550002 c -0.39600015 0.25299978 -0.8470001 0.38499975 -1.3529999 0.38499975 c -0.49500012 0 -0.92400014 -0.13199997 -1.3090001 -0.38499975 c -0.42899996 -0.28600025 -0.6489999 -0.65999985 -0.6489999 -1.1329999 c 0 -0.36299992 0.24199998 -0.6160002 0.594 -0.6160002 c 0.352 0 0.594 0.25300026 0.594 0.605 c 0 0.36299992 -0.20899999 0.5609999 -0.627 0.5830002 c 0.286 0.38499975 0.737 0.5829997 1.3529999 0.5829997 c 0.6600001 0 0.99 -0.38499975 0.99 -1.1659999 c 0 -0.4619999 -0.08800006 -0.8470001 -0.25300002 -1.1659999 c -0.29699993 -0.5279999 -0.704 -0.62699986 -1.3859999 -0.62699986 c -0.13199997 -0.022000313 -0.19800007 -0.07700014 -0.19800007 -0.17600012 c 0 -0.1650002 0.07700002 -0.1650002 0.29700005 -0.1650002 h 0.47300005 c 0.82500005 0 1.243 -0.58299994 1.243 -1.7599999 c 0 -0.935 -0.34100008 -1.749 -1.177 -1.749 c -0.71500003 0 -1.243 0.242 -1.562 0.726 c 0.385 -0.010999978 0.671 0.27499998 0.671 0.64900005 c 0 0.37399995 -0.27499998 0.6489999 -0.64900005 0.6489999 c -0.42899996 0 -0.6489999 -0.22000003 -0.6489999 -0.671 c 0 -0.539 0.24199998 -0.968 0.72599995 -1.309 c 0.42900002 -0.297 0.93499994 -0.44 1.496 -0.44 c 0.62699986 0 1.1659999 0.20899999 1.6389999 0.616 c 0.47300005 0.407 0.704 0.9129999 0.704 1.529 c 0 1.034 -0.8140001 1.749 -1.694 1.9799999 Z "/>
        </symbol>
        <symbol id="g6775D2C94F1577D71D4D8099022C88E2" overflow="visible">
            <path d="M 0 0m 3.883 7.447 c -0.09899998 0 -0.1869998 -0.05499983 -0.25300002 -0.15400028 l -3.3219998 -5.104 v -0.3959999 h 2.8709998 v -0.902 c 0 -0.19799995 -0.04399991 -0.32999998 -0.12099981 -0.385 c -0.07700014 -0.054999977 -0.286 -0.07699999 -0.64900017 -0.07699999 h -0.27499986 v -0.429 c 0.319 0.022 0.8249998 0.033 1.507 0.033 c 0.6819999 0 1.188 -0.011 1.5069997 -0.033 v 0.429 h -0.27499962 c -0.3630004 0 -0.572 0.022000015 -0.64900017 0.07699999 c -0.07700014 0.055000007 -0.12099981 0.18700004 -0.12099981 0.385 v 0.902 h 1.0779996 v 0.4289999 h -1.0779996 v 5.038 c 0 0.11000013 -0.07700014 0.18700027 -0.22000027 0.18700027 Z m -0.638 -1.3639998 v -3.8610003 h -2.508 Z "/>
        </symbol>
        <symbol id="g76CC6AC8A8B03ED32F515502BB36606E" overflow="visible">
            <path d="M 0 0m 1.298 3.465 c 0.055000067 0 0.12100005 0.04400015 0.176 0.12100005 c 0.33000004 0.4949999 0.7809999 0.737 1.3529999 0.737 c 0.385 0 0.68200016 -0.21999979 0.8800001 -0.671 c 0.12100005 -0.29699993 0.18700004 -0.7479999 0.18700004 -1.3529999 c 0 -0.6930001 -0.08800006 -1.177 -0.25300002 -1.463 c -0.2750001 -0.45099998 -0.6489999 -0.682 -1.122 -0.682 c -0.7370001 0 -1.32 0.528 -1.518 1.0999999 c 0.032999992 -0.010999918 0.054999948 0 0.09899998 0 c 0.32999992 0 0.605 0.25300002 0.605 0.58300006 c 0 0.34099996 -0.2750001 0.5719999 -0.605 0.5719999 c -0.38500005 0 -0.55 -0.20899987 -0.55 -0.61599994 c 0 -1.0999999 0.891 -2.035 1.9909999 -2.035 c 0.671 0 1.243 0.242 1.7049999 0.726 c 0.46200037 0.484 0.6930003 1.067 0.6930003 1.7379999 c 0 0.638 -0.18700027 1.1880002 -0.56100035 1.661 c -0.40699983 0.5170002 -0.91299987 0.77 -1.5289998 0.77 c -0.51699996 0 -0.96799994 -0.16499996 -1.331 -0.4949999 v 1.9580002 c 0.29699993 -0.0880003 0.58300006 -0.13199997 0.88 -0.13199997 c 0.50600004 0 0.94599986 0.12099981 1.3199999 0.3739996 c 0.34100008 0.20900011 0.572 0.41800022 0.704 0.6160002 c 0.065999985 0.08799982 0.09899998 0.1539998 0.09899998 0.1869998 c 0 0.11000013 -0.05499983 0.16499996 -0.16499996 0.16499996 c -0.605 -0.23099995 -1.122 -0.35199976 -1.54 -0.35199976 c -0.4949999 0 -0.96799994 0.09899998 -1.419 0.3080001 c -0.054999948 0.021999836 -0.09899998 0.032999992 -0.143 0.032999992 c -0.09899998 0 -0.15399992 -0.09899998 -0.15399992 -0.3080001 v -3.212 c 0 -0.23100019 0 -0.33000016 0.19799995 -0.33000016 Z "/>
        </symbol>
        <symbol id="gDFF74FCC01E990555ABFEFC545559C8F" overflow="visible">
            <path d="M 0 0m 4.213 5.544 c 0.3630004 0 0.53900003 0.1869998 0.53900003 0.5609999 c 0 0.7919998 -0.59399986 1.2209997 -1.408 1.2209997 c -0.91299987 0 -1.6389998 -0.4289999 -2.178 -1.2979999 c -0.473 -0.74800014 -0.704 -1.5949998 -0.704 -2.5519998 c 0 -1.3970001 0.25299996 -2.376 0.77 -2.959 c 0.43999994 -0.50600004 0.946 -0.759 1.5289999 -0.759 c 0.671 0 1.221 0.253 1.6499999 0.759 c 0.40700006 0.48400003 0.6160002 1.0669999 0.6160002 1.7379999 c 0 0.671 -0.19799995 1.243 -0.59399986 1.7160001 c -0.41800022 0.5059998 -0.957 0.7700002 -1.6060002 0.7700002 c -0.572 0 -1.012 -0.31900024 -1.3089999 -0.9350002 v 0.065999985 c 0 1.2429998 0.30799997 2.299 0.96800005 2.7829998 c 0.286 0.20900011 0.58299994 0.3080001 0.8799999 0.3080001 c 0.39600015 0 0.6819999 -0.10999966 0.8690002 -0.34100008 c -0.37400007 0 -0.5610001 -0.20899963 -0.5610001 -0.53899956 c 0 -0.3080001 0.23099995 -0.53900003 0.5389998 -0.53900003 Z m -0.4289999 -1.8040001 c 0.12100005 -0.25300002 0.18700004 -0.7479999 0.18700004 -1.474 c 0 -0.71500003 -0.055000067 -1.1880001 -0.17599988 -1.4300001 c -0.22000003 -0.45099998 -0.5610001 -0.682 -1.0340002 -0.682 c -0.319 0 -0.5609999 0.11 -0.737 0.32999998 c -0.14299989 0.17599997 -0.24199998 0.33 -0.2859999 0.451 c -0.13200009 0.34100002 -0.19800007 0.858 -0.19800007 1.562 c 0 0.3080001 0.04400003 0.605 0.12100005 0.89100003 c 0.143 0.51699996 0.54999995 1.0009999 1.155 1.0009999 c 0.4289999 0 0.75900006 -0.21999979 0.96799994 -0.6489999 Z "/>
        </symbol>
        <symbol id="gB90EC829F5BFC81BEC5B36D533FF9496" overflow="visible">
            <path d="M 0 0m 5.225 6.644 c 0.07700014 0.09899998 0.11000013 0.2420001 0.11000013 0.44000006 h -2.662 c -0.75900006 0 -1.1880001 0.043999672 -1.2650001 0.14299965 c -0.032999992 0.032999992 -0.065999985 0.11000013 -0.08800006 0.20900011 h -0.34099996 l -0.37399995 -2.3319998 h 0.36299998 c 0.109999955 0.6159997 0.19800001 0.9460001 0.264 1.0009999 c 0.032999992 0.032999992 0.37399995 0.05499983 1.0229999 0.05499983 h 2.156 l -1.1659999 -1.6500001 c -0.8909998 -1.2649999 -1.3309999 -2.6289997 -1.3309999 -4.114 c 0 -0.429 0.17599988 -0.638 0.53900003 -0.638 c 0.36299992 0 0.53900003 0.20899999 0.53900003 0.638 v 0.561 c 0 1.6719999 0.26399994 2.882 0.7809999 3.6190002 Z "/>
        </symbol>
        <symbol id="g93E4F1310346FC3FC8401208100EF4F1" overflow="visible">
            <path d="M 0 0m 2.75 7.3259997 c -0.53900003 0 -1.012 -0.17599964 -1.408 -0.5279999 c -0.39600003 -0.35199976 -0.594 -0.7919998 -0.594 -1.3309999 c 0 -0.4510002 0.16499996 -0.8579998 0.495 -1.2210002 c 0.0769999 -0.08799982 0.319 -0.27499986 0.72599995 -0.5609999 c -1.0009999 -0.51699996 -1.507 -1.188 -1.507 -2.0019999 c 0 -0.58299994 0.24199998 -1.056 0.71500003 -1.4189999 c 0.43999994 -0.341 0.957 -0.506 1.562 -0.506 c 0.61599994 0 1.155 0.198 1.6059997 0.594 c 0.4510002 0.39600003 0.68200016 0.913 0.68200016 1.518 c 0 0.5059999 -0.17600012 0.9569999 -0.53900003 1.364 c -0.13199997 0.14300013 -0.47300005 0.3959999 -1.0119998 0.737 c 0.8469999 0.45099998 1.2650001 1.023 1.2650001 1.694 c 0 1.0009999 -0.95700026 1.6609998 -1.9910002 1.6609998 Z m 1.4190001 -1.6609998 c 0 -0.572 -0.34100008 -1.0669999 -1.0230002 -1.474 l -1.3089999 0.8579998 c -0.34099996 0.22000027 -0.5170001 0.50600004 -0.5170001 0.8470001 c 0 0.65999985 0.71500015 1.0669999 1.4190001 1.0669999 c 0.7589998 0 1.4300001 -0.53900003 1.4300001 -1.2979999 Z m -1.4190001 -5.511 c -0.90199995 0 -1.661 0.649 -1.661 1.5289999 c 0 0.7370001 0.40700006 1.331 1.221 1.782 l 1.2980001 -0.82500005 c 0.5280001 -0.34099984 0.79200006 -0.72599983 0.79200006 -1.1659999 c 0 -0.792 -0.82500005 -1.3199999 -1.6500001 -1.3199999 Z "/>
        </symbol>
        <symbol id="g273FFD957F5D14136D618FFDC5D4AE51" overflow="visible">
            <path d="M 0 0m 1.276 1.54 c -0.36300004 0 -0.53900003 -0.18699992 -0.53900003 -0.561 c 0 -0.825 0.671 -1.221 1.54 -1.221 c 0.8800001 0 1.5840001 0.44 2.1009998 1.331 c 0.42900038 0.737 0.64900017 1.5840001 0.64900017 2.53 c 0 1.3969998 -0.25299978 2.387 -0.7589998 2.9699998 c -0.42900014 0.49500036 -0.92400026 0.737 -1.4850001 0.737 c -0.6489999 0 -1.188 -0.23099995 -1.617 -0.704 c -0.473 -0.4949999 -0.704 -1.0889997 -0.704 -1.7819996 c 0 -0.671 0.19799995 -1.2430003 0.594 -1.7160001 c 0.41799998 -0.50600004 0.957 -0.75900006 1.606 -0.75900006 c 0.572 0 1.0120001 0.3080001 1.309 0.924 v -0.14300013 c 0 -1.1989999 -0.20899987 -2.013 -0.638 -2.4529998 c -0.34099984 -0.36300004 -0.704 -0.53900003 -1.0669999 -0.53900003 c -0.44000006 0 -0.75900006 0.09899999 -0.96800005 0.30800003 c 0.34099996 0 0.51699996 0.19799995 0.51699996 0.53900003 c 0 0.30799997 -0.23099995 0.5389999 -0.5389999 0.5389999 Z m 1.3970001 1.1660001 c -0.42900014 0 -0.74800014 0.21999979 -0.96800005 0.65999985 c -0.12100005 0.25300002 -0.18700004 0.7479999 -0.18700004 1.463 c 0 0.71500015 0.07700002 1.1989999 0.22000003 1.474 c 0.24199998 0.44000006 0.594 0.65999985 1.045 0.65999985 c 0.45099998 0 0.7809999 -0.2750001 0.99 -0.8249998 c 0.12100005 -0.29699993 0.19799995 -0.803 0.19799995 -1.5180001 c 0 -0.957 -0.4289999 -1.9139998 -1.2979999 -1.9139998 Z "/>
        </symbol>
        <symbol id="g7DFEDDCD08E45120CE465D554C42A1DB" overflow="visible">
            <path d="M 0 0m 2.739 -0.242 c 1.5509999 0 2.3209999 1.254 2.3209999 3.762 c 0 1.6830001 -0.35199976 2.8049998 -1.0450001 3.355 c -0.385 0.29699993 -0.8139999 0.45099974 -1.2649999 0.45099974 c -1.551 0 -2.321 -1.2649999 -2.321 -3.8059998 c 0 -2.024 0.53900003 -3.762 2.3100002 -3.762 Z m 1.2319999 6.006 c 0.0769999 -0.38499975 0.109999895 -1.0889997 0.109999895 -2.112 c 0 -1.0120001 -0.043999672 -1.76 -0.12099981 -2.244 c -0.14300013 -0.88 -0.54999995 -1.3199999 -1.221 -1.3199999 c -0.25300002 0 -0.50600004 0.09900001 -0.737 0.286 c -0.29700005 0.25299996 -0.47300005 0.77000004 -0.5500001 1.562 c -0.032999992 0.27499998 -0.04400003 0.847 -0.04400003 1.716 c 0 0.95700026 0.032999992 1.6279998 0.08800006 1.9910002 c 0.09899998 0.605 0.29699993 0.9899998 0.605 1.1549997 c 0.24199986 0.13199997 0.45099998 0.19799995 0.638 0.19799995 c 0.7149999 0 1.1109998 -0.5829997 1.2319999 -1.2319999 Z "/>
        </symbol>
    </defs>
</svg>
