<?xml version="1.0" encoding="UTF-8" standalone="no"?>
<!-- Created with Inkscape (http://www.inkscape.org/) -->

<svg
   width="100mm"
   height="100mm"
   viewBox="0 0 100 100"
   version="1.1"
   fill="currentColor"
   id="svg1"
   xmlns="http://www.w3.org/2000/svg"
   xmlns:svg="http://www.w3.org/2000/svg">
  <defs
     id="defs1" />
  <g
     id="layer1">
    <g
       id="g1">
      <g
         id="g2">
        <g
           id="path7"
           style="stroke:none;fill-opacity:1">
          <path
             style="stroke-linecap:round;stroke-linejoin:round;stroke:none;fill-opacity:1"
             d="M 24.292897,5.0304343 V 78.617157 l 39.22758,16.352491 V 21.382925 Z M 54.380983,52.759304 a 5.7549887,5.7549887 0 0 1 5.755204,5.754688 5.7549887,5.7549887 0 0 1 -5.755204,5.755204 5.7549887,5.7549887 0 0 1 -5.754688,-5.755204 5.7549887,5.7549887 0 0 1 5.754688,-5.754688 z"
             id="path3" />
          <path
             style="stroke-linecap:round;stroke-linejoin:round;stroke:none;fill-opacity:1"
             d="M 25.253906,2.7226563 A 2.50025,2.50025 0 0 0 21.792969,5.03125 v 73.585937 a 2.50025,2.50025 0 0 0 1.537109,2.306641 L 62.558594,97.277344 A 2.50025,2.50025 0 0 0 66.019531,94.96875 V 21.382812 a 2.50025,2.50025 0 0 0 -1.537109,-2.30664 z M 26.792969,8.78125 61.019531,23.048828 v 30.839844 c -1.498427,-2.134996 -3.855775,-3.62901 -6.638672,-3.628906 -4.529161,2.36e-4 -8.253669,3.724745 -8.253906,8.253906 -1.69e-4,4.529442 3.724465,8.255623 8.253906,8.255859 2.78307,1.04e-4 5.140277,-1.495664 6.638672,-3.630859 V 91.21875 L 26.792969,76.951172 Z m 27.58789,46.478516 c 1.827271,-6.9e-5 3.255764,1.426636 3.25586,3.253906 6.8e-5,1.827392 -1.428467,3.255928 -3.25586,3.255859 -1.82727,-9.5e-5 -3.253974,-1.428589 -3.253906,-3.255859 9.6e-5,-1.827148 1.426758,-3.253811 3.253906,-3.253906 z"
             id="path4" />
        </g>
        <path
           style="stroke-linecap:round;stroke-linejoin:round;stroke:none;fill-opacity:1"
           d="m 12.423828,76.117187 a 2.5,2.5 0 0 0 -2.4999999,2.5 2.5,2.5 0 0 0 2.4999999,2.5 h 11.869141 a 2.5,2.5 0 0 0 2.5,-2.5 2.5,2.5 0 0 0 -2.5,-2.5 z"
           id="path8" />
        <path
           style="stroke-linecap:round;stroke-linejoin:round;stroke:none;fill-opacity:1"
           d="m 63.519531,76.117187 a 2.5,2.5 0 0 0 -2.5,2.5 2.5,2.5 0 0 0 2.5,2.5 h 24.056641 a 2.5,2.5 0 0 0 2.5,-2.5 2.5,2.5 0 0 0 -2.5,-2.5 z"
           id="path9" />
        <path
           style="stroke-linecap:round;stroke-linejoin:round;stroke:none;fill-opacity:1"
           d="m 24.292969,2.53125 a 2.5,2.5 0 0 0 -2.5,2.5 2.5,2.5 0 0 0 2.5,2.5 h 48.373047 v 71.085937 a 2.5,2.5 0 0 0 2.5,2.5 2.5,2.5 0 0 0 2.5,-2.5 V 5.03125 a 2.50025,2.50025 0 0 0 -2.5,-2.5 z"
           id="path10" />
      </g>
    </g>
  </g>
</svg>
