<?xml version="1.0" encoding="UTF-8" standalone="no"?>
<!-- Created with Inkscape (http://www.inkscape.org/) -->

<svg
   width="100mm"
   height="100mm"
   viewBox="0 0 100 100"
   version="1.1"
   id="svg1"
   fill="currentColor"
   sodipodi:docname="earth.svg"
   xml:space="preserve"
   inkscape:version="1.4-dev (1:1.4.0-dev+202403210151+2fe0648968)"
   xmlns:inkscape="http://www.inkscape.org/namespaces/inkscape"
   xmlns:sodipodi="http://sodipodi.sourceforge.net/DTD/sodipodi-0.dtd"
   xmlns="http://www.w3.org/2000/svg"
   xmlns:svg="http://www.w3.org/2000/svg"><sodipodi:namedview
     id="namedview1"
     pagecolor="#ffffff"
     bordercolor="#000000"
     borderopacity="0.25"
     inkscape:showpageshadow="2"
     inkscape:pageopacity="0.0"
     inkscape:pagecheckerboard="0"
     inkscape:deskcolor="#d1d1d1"
     inkscape:document-units="mm"
     inkscape:zoom="0.80830208"
     inkscape:cx="173.20257"
     inkscape:cy="217.1218"
     inkscape:window-width="1128"
     inkscape:window-height="690"
     inkscape:window-x="0"
     inkscape:window-y="0"
     inkscape:window-maximized="1"
     inkscape:current-layer="g25" /><defs
     id="defs1" /><g
     id="g25"
     transform="translate(-0.72219849,-0.30744553)"><g
       id="g2"
       transform="matrix(0.95583955,0,0,0.95583955,2.6379859,2.5058019)"
       style="stroke:none"><g
         id="path11"
         style="stroke:none"><path
           style="stroke-linecap:round;stroke-linejoin:round;stroke:none"
           d="m 32.718908,5.9539286 c 0,0 -3.10965,4.7463104 0,4.7463104 3.10966,0 9.81997,-2.7823204 12.27496,-1.9639904 2.45499,0.81833 4.58265,3.4369904 9.32897,3.2733304 4.74632,-0.16367 9.32897,-1.30934 11.29296,-1.473 1.964,-0.16367 4.09166,-0.32733 4.41899,2.78232 0.32733,3.10966 -2.29133,3.60066 -1.964,4.25532 0.32734,0.65467 2.29133,1.14566 1.80033,4.25532 -0.491,3.10966 -0.491,3.92799 -0.491,3.92799 0,0 -2.45499,-3.76432 -2.45499,-5.40098 0,-1.63667 -0.65466,-4.74632 -1.47299,-3.43699 -0.81833,1.30933 -4.09166,0.98199 -5.23732,3.10966 -1.14566,2.12766 -1.30933,3.10965 0.32733,4.25531 1.63666,1.14567 2.61866,6.21932 0,8.01964 -2.61866,1.80033 -5.23731,3.92799 -5.23731,4.41899 0,0.491 2.12766,1.14566 2.12766,2.61866 0,1.47299 -2.78233,2.29132 -2.78233,2.29132 0,0 1.14567,-1.80033 0.16367,-2.94599 -0.61639,-0.71912 -1.75527,-1.31098 -2.92524,-1.79955 -0.69395,-0.28979 -1.43634,-0.91831 -1.98475,-0.49177 -1.47299,1.14566 3.10966,6.71031 1.63667,9.98363 -1.473,3.27332 -8.5685,6.97978 -9.0595,7.14345 -0.25208,0.084 0.17601,1.10498 -0.0437,1.76484 -0.20824,0.62541 -1.05726,0.9029 -1.5351,0.58434 -0.98199,-0.65467 0.98199,-2.45499 0,-2.94599 -0.982,-0.49099 -3.60065,1.80033 -2.29133,3.60066 1.30933,1.80033 2.78233,5.89198 0.32733,7.03764 -2.45499,1.14567 -3.92798,-5.40098 -5.07364,-2.78232 -1.14567,2.61866 2.45499,7.69231 1.80032,8.6743 -0.65466,0.982 -3.10965,-0.81833 -3.92798,-4.25532 -0.81833,-3.43698 -1.63666,-9.81996 -3.76432,-13.25695 -2.12766,-3.43699 -9.00164,0 -9.98364,3.43699 -0.98199,3.43698 -4.582648,5.40098 -4.582648,-0.16367 0,-5.56465 -1.145664,-10.96563 -2.618658,-15.05728 -1.4729962,-4.09166 -2.6186582,-7.52864 -2.6186582,-7.52864 0,0 -0.327334,4.58265 0.490998,8.51063 0.81833,3.92799 -6.3829797,4.41899 -6.3829797,4.41899 0,0 5.0858677,-18.0331 10.3927999,-24.63175 4.728576,-5.87952 12.520446,-12.4386204 20.049096,-14.9754504 z"
           id="path26" /><path
           style="stroke-linecap:round;stroke-linejoin:round;stroke:none"
           d="M 32.601562,5.6074219 C 24.964271,8.1808593 17.153143,14.770209 12.384766,20.699219 9.6649495,24.081043 7.0785329,30.248739 5.1386719,35.595703 3.1988108,40.942667 1.9238281,45.460937 1.9238281,45.460937 a 0.36653664,0.36653664 0 0 0 0.3789063,0.466797 c 0,0 1.8364287,-0.121223 3.5976562,-0.757812 0.8806138,-0.318295 1.7522856,-0.764321 2.375,-1.429688 0.6227145,-0.665366 0.970924,-1.583313 0.7441407,-2.671875 -0.5093129,-2.444693 -0.553028,-4.724966 -0.5273438,-6.392578 0.3967204,1.174218 0.8536681,2.560751 1.9511715,5.609375 1.458693,4.051924 2.595704,9.417295 2.595704,14.931641 0,1.430687 0.220006,2.413455 0.636718,3.05664 0.416712,0.643186 1.098784,0.899167 1.732422,0.759766 0.633638,-0.1394 1.223695,-0.589641 1.734375,-1.212891 0.51068,-0.623249 0.940001,-1.430624 1.199219,-2.33789 0.437808,-1.532323 2.324933,-3.233794 4.347656,-4.058594 1.011362,-0.4124 2.049075,-0.609691 2.923828,-0.511719 0.874754,0.09797 1.575837,0.463702 2.046875,1.22461 1.021454,1.65004 1.758804,4.079583 2.328125,6.519531 0.569321,2.439948 0.977948,4.887463 1.392578,6.628906 0.424953,1.784803 1.26872,3.150721 2.128907,3.966797 0.430093,0.408038 0.862122,0.684927 1.291015,0.792969 0.428894,0.108042 0.918944,-0.0083 1.169922,-0.384766 0.165239,-0.247855 0.160526,-0.523325 0.121094,-0.802734 -0.03943,-0.279409 -0.128361,-0.583227 -0.246094,-0.921875 -0.235466,-0.677297 -0.589459,-1.484816 -0.923828,-2.335938 -0.668739,-1.702243 -1.202187,-3.569394 -0.720703,-4.669922 0.12619,-0.288434 0.244423,-0.391292 0.267578,-0.402343 0.02316,-0.01105 0.01188,-0.02481 0.121094,0.04883 0.21843,0.147275 0.61093,0.670819 1.021484,1.255859 0.410554,0.585041 0.868168,1.235669 1.427734,1.695313 0.559567,0.459644 1.307003,0.718062 2.054688,0.36914 0.702233,-0.327707 1.14897,-0.897212 1.361328,-1.548828 0.212358,-0.651616 0.21252,-1.381021 0.09375,-2.115234 -0.23754,-1.468426 -0.946731,-2.967771 -1.640625,-3.921875 -0.2714,-0.373178 -0.330546,-0.737431 -0.267578,-1.115235 0.06297,-0.377803 0.265096,-0.76499 0.539062,-1.09375 0.273967,-0.328759 0.617662,-0.595571 0.923829,-0.742187 0.306166,-0.146616 0.549527,-0.148087 0.634765,-0.105469 0.06083,0.03041 0.06079,0.0411 0.06836,0.05859 0.0076,0.01749 0.01799,0.06223 0.0078,0.144531 -0.02036,0.164597 -0.126682,0.442215 -0.25,0.740235 -0.123318,0.298019 -0.263045,0.617563 -0.302734,0.964843 -0.03969,0.347281 0.08058,0.777675 0.4375,1.015625 0.363144,0.242096 0.808525,0.241382 1.195312,0.101563 0.386788,-0.139819 0.744474,-0.436061 0.890625,-0.875 0.150293,-0.451379 0.07399,-0.913383 0.02539,-1.265625 -0.0211,-0.152928 -0.03426,-0.266621 -0.03906,-0.347656 0.09842,-0.04318 0.179833,-0.07623 0.345703,-0.160157 0.249193,-0.126091 0.574543,-0.29875 0.957032,-0.511718 0.764978,-0.425937 1.75315,-1.012028 2.773437,-1.697266 2.040575,-1.370477 4.221716,-3.1023 5.027344,-4.892578 0.826755,-1.837238 -0.0308,-4.121932 -0.8125,-6.076172 -0.390848,-0.97712 -0.775022,-1.879054 -0.962891,-2.570313 -0.09393,-0.345629 -0.136907,-0.637383 -0.123047,-0.83789 0.01386,-0.200507 0.06132,-0.288575 0.152344,-0.359375 0.07104,-0.05525 0.121526,-0.06838 0.210938,-0.06641 0.08941,0.002 0.216112,0.03329 0.363281,0.09375 0.294339,0.120912 0.653889,0.350378 1.044922,0.513671 1.15089,0.480603 2.251224,1.074021 2.787109,1.699219 0.383434,0.447337 0.358092,1.032976 0.210938,1.566406 -0.147155,0.533431 -0.404297,0.94336 -0.404297,0.94336 a 0.36653664,0.36653664 0 0 0 0.412109,0.548828 c 0,0 0.728191,-0.212251 1.466797,-0.625 0.369303,-0.206374 0.745961,-0.463552 1.046875,-0.791016 0.300914,-0.327463 0.53125,-0.742934 0.53125,-1.226562 0,-0.912963 -0.647038,-1.537987 -1.207031,-1.96875 -0.279997,-0.215382 -0.549719,-0.392212 -0.730469,-0.53125 -0.07831,-0.06024 -0.128447,-0.107336 -0.162109,-0.142578 0.0058,-0.01544 -0.0042,0.01772 0.02344,-0.02148 0.05902,-0.08361 0.161605,-0.203648 0.296875,-0.34375 0.270541,-0.280203 0.671407,-0.642838 1.15625,-1.046875 0.969687,-0.808074 2.273434,-1.78735 3.574219,-2.68164 1.459402,-1.003334 1.88263,-2.867672 1.753906,-4.583985 -0.128724,-1.716312 -0.75361,-3.338264 -1.751953,-4.037109 -0.773326,-0.541328 -1.034419,-0.947083 -1.050781,-1.470703 -0.01636,-0.523621 0.270812,-1.261026 0.835937,-2.310547 0.500033,-0.928639 1.486909,-1.345443 2.533203,-1.6875 0.523148,-0.171028 1.051915,-0.319409 1.523438,-0.519531 0.471523,-0.200123 0.903501,-0.456539 1.169922,-0.882813 0.04772,-0.07636 0.05179,-0.06927 0.07227,-0.08789 0.05493,0.06296 0.197498,0.273248 0.310547,0.621093 0.247429,0.761322 0.41211,1.941469 0.41211,2.710938 0,1.00158 0.64916,2.324656 1.271484,3.486328 0.622324,1.161672 1.242188,2.113281 1.242188,2.113281 a 0.36653664,0.36653664 0 0 0 0.673828,-0.199219 c 0,0 -0.0031,-0.771217 0.486328,-3.871093 0.257704,-1.632125 -0.143125,-2.672226 -0.667969,-3.333985 -0.262422,-0.330879 -0.546524,-0.568739 -0.769531,-0.755859 -0.200202,-0.167985 -0.311155,-0.285624 -0.355469,-0.347656 0.01927,-0.02657 0.03748,-0.05556 0.09961,-0.115235 0.168332,-0.161685 0.468996,-0.39353 0.777344,-0.71289 0.616697,-0.638721 1.256558,-1.681826 1.082031,-3.339844 -0.172389,-1.637708 -0.888547,-2.547606 -1.824218,-2.921875 -0.935672,-0.3742686 -2.005441,-0.269405 -2.988282,-0.1875 -2.05803,0.171496 -6.579822,1.308783 -11.27539,1.470703 C 49.70256,11.801467 47.726621,9.2610865 45.109374,8.3886709 44.389001,8.1485465 43.473005,8.1867072 42.42578,8.3359369 41.378555,8.4851662 40.204097,8.759034 39.013671,9.05664 c -2.380852,0.5952121 -4.849399,1.277343 -6.294922,1.277343 -0.34209,0 -0.562796,-0.06591 -0.701172,-0.15039 -0.138375,-0.08448 -0.211339,-0.1860518 -0.261719,-0.3398436 -0.10076,-0.3075837 -0.03857,-0.8434007 0.144532,-1.4023437 0.366204,-1.1178862 1.125,-2.2871094 1.125,-2.2871094 a 0.36653664,0.36653664 0 0 0 -0.423829,-0.546875 z m -0.658203,1.1035156 c -0.269396,0.465945 -0.487046,0.7350252 -0.738281,1.5019531 -0.205604,0.6276346 -0.337254,1.2770255 -0.146484,1.8593754 0.09539,0.291174 0.2894,0.561246 0.576172,0.736328 0.286772,0.175082 0.648661,0.257812 1.083984,0.257812 1.664137,0 4.10719,-0.707462 6.472656,-1.2988279 1.182733,-0.2956828 2.33929,-0.5647308 3.337891,-0.7070312 0.998601,-0.1423004 1.842487,-0.1456031 2.349609,0.023437 2.292733,0.7642444 4.572377,3.4594451 9.457031,3.2910151 4.797072,-0.16542 9.440597,-1.316833 11.310547,-1.472656 0.98116,-0.08176 1.955259,-0.141725 2.65625,0.138672 0.700991,0.280396 1.212247,0.844464 1.367188,2.316406 0.152803,1.451642 -0.351891,2.208 -0.88086,2.755859 -0.264484,0.27393 -0.537435,0.481683 -0.757812,0.69336 -0.110189,0.105838 -0.212733,0.211085 -0.287109,0.365234 -0.07438,0.154149 -0.09068,0.388962 -0.002,0.566406 0.139202,0.278398 0.36007,0.434851 0.582032,0.621094 0.221962,0.186243 0.457897,0.387981 0.666015,0.650391 0.416237,0.524819 0.752827,1.284183 0.519532,2.761718 -0.355226,2.249755 -0.328959,2.449058 -0.357422,2.875 -0.232835,-0.379112 -0.338142,-0.518177 -0.675782,-1.148437 -0.605171,-1.129654 -1.185546,-2.505545 -1.185546,-3.140625 0,-0.867201 -0.162782,-2.062161 -0.447266,-2.9375 -0.142242,-0.437669 -0.279878,-0.80105 -0.595703,-1.039063 -0.157913,-0.119006 -0.416776,-0.181361 -0.628906,-0.09961 -0.21213,0.08175 -0.353126,0.242736 -0.478516,0.443359 -0.142744,0.228391 -0.425801,0.422463 -0.833984,0.595703 -0.408184,0.173241 -0.92416,0.321286 -1.464844,0.498047 -1.081368,0.353523 -2.303592,0.838079 -2.949219,2.03711 -0.580535,1.078138 -0.94838,1.895936 -0.923828,2.68164 0.02455,0.785705 0.499948,1.442543 1.363281,2.046875 0.638317,0.446825 1.322677,1.935178 1.439453,3.492188 0.116776,1.55701 -0.278241,3.128795 -1.4375,3.925781 -1.317875,0.90604 -2.632649,1.892115 -3.626953,2.720703 -0.497151,0.414294 -0.912554,0.788476 -1.214844,1.101563 -0.151144,0.156543 -0.27472,0.295924 -0.36914,0.429687 -0.09442,0.133763 -0.185547,0.244487 -0.185547,0.46875 0,0.193722 0.0942,0.329791 0.181641,0.431641 0.08744,0.10185 0.185828,0.18366 0.294921,0.267578 0.218187,0.167836 0.478551,0.33942 0.730469,0.533203 0.503837,0.387567 0.921875,0.826681 0.921875,1.386719 0,0.252867 -0.117117,0.49217 -0.33789,0.732422 -0.220774,0.240252 -0.538955,0.464152 -0.865235,0.646484 -0.257445,0.143866 -0.300144,0.130839 -0.519531,0.220703 0.04831,-0.125344 0.06936,-0.108852 0.109375,-0.253906 0.180181,-0.65315 0.237238,-1.539958 -0.361328,-2.238281 -0.696895,-0.813042 -1.87345,-1.403853 -3.0625,-1.900391 -0.302918,-0.126497 -0.661382,-0.356465 -1.048828,-0.515625 -0.193723,-0.07958 -0.399288,-0.143467 -0.625,-0.148437 -0.225713,-0.005 -0.472617,0.06464 -0.675782,0.222656 -0.277218,0.215614 -0.410374,0.550836 -0.433593,0.886719 -0.02322,0.335882 0.04095,0.691767 0.146484,1.080078 0.211069,0.776621 0.603668,1.685928 0.990234,2.652343 0.773134,1.932831 1.470454,4.065872 0.824219,5.501954 -0.667371,1.483042 -2.771356,3.241983 -4.769531,4.583984 -0.999088,0.671 -1.969197,1.248667 -2.71875,1.666016 -0.374777,0.208674 -0.695017,0.377327 -0.933594,0.498046 -0.238577,0.12072 -0.42978,0.202505 -0.419922,0.199219 -0.151895,0.05062 -0.260684,0.19587 -0.296875,0.300781 -0.03619,0.104912 -0.03602,0.188477 -0.03516,0.269532 0.0017,0.162109 0.02703,0.322034 0.05078,0.49414 0.04749,0.344213 0.07528,0.72316 0.0059,0.931641 -0.06209,0.186471 -0.234117,0.34233 -0.44336,0.417969 -0.209242,0.07564 -0.426319,0.05303 -0.541015,-0.02344 -0.134076,-0.08939 -0.13692,-0.130563 -0.115235,-0.320312 0.02169,-0.18975 0.127821,-0.472309 0.25,-0.767578 0.12218,-0.295269 0.261723,-0.600126 0.302735,-0.931641 0.02051,-0.165758 0.01432,-0.347888 -0.0625,-0.525391 -0.07682,-0.177502 -0.229395,-0.331493 -0.414063,-0.423828 -0.405761,-0.202876 -0.859195,-0.101567 -1.279297,0.09961 -0.420101,0.201176 -0.832093,0.527809 -1.171875,0.935546 -0.339781,0.407738 -0.608748,0.900542 -0.699218,1.44336 -0.09047,0.542818 0.01518,1.139029 0.398437,1.666015 0.615436,0.846226 1.297223,2.293526 1.509766,3.607422 0.106271,0.656949 0.0946,1.277439 -0.06641,1.771485 -0.161006,0.494045 -0.449342,0.866205 -0.974609,1.111328 -0.47981,0.223913 -0.83641,0.09231 -1.279297,-0.271485 -0.442887,-0.363799 -0.885193,-0.9697 -1.292969,-1.550781 C 35.803162,60.829075 35.45669,60.276671 35,59.96875 c -0.228345,-0.153961 -0.561381,-0.240148 -0.847656,-0.103516 -0.286276,0.136632 -0.462822,0.403301 -0.623047,0.769532 -0.664187,1.518132 0.02943,3.497678 0.710937,5.232421 0.340754,0.867372 0.692381,1.676564 0.91211,2.308594 0.109864,0.316015 0.185195,0.588912 0.21289,0.785156 0.0277,0.196245 -0.0074,0.295327 -0.0059,0.292969 -0.07635,0.114529 -0.137793,0.140817 -0.378906,0.08008 -0.241113,-0.06074 -0.599019,-0.264363 -0.966797,-0.613281 -0.735556,-0.697836 -1.526545,-1.953282 -1.919922,-3.605469 -0.4037,-1.695537 -0.814284,-4.154965 -1.390625,-6.625 -0.576341,-2.470035 -1.311762,-4.951331 -2.417969,-6.738281 -0.592792,-0.957587 -1.548587,-1.45152 -2.591797,-1.568359 -1.043209,-0.11684 -2.185409,0.115652 -3.28125,0.5625 -2.191681,0.893695 -4.231198,2.630488 -4.77539,4.535156 -0.231778,0.811224 -0.621872,1.536463 -1.0625,2.074219 -0.440628,0.537756 -0.934944,0.875297 -1.324219,0.960937 -0.389275,0.08564 -0.669886,0.0048 -0.958984,-0.441406 -0.289099,-0.446217 -0.517578,-1.306565 -0.517578,-2.658203 0,-5.614954 -1.15333,-11.050265 -2.640625,-15.181641 C 9.6614574,35.948055 8.5175781,32.515625 8.5175781,32.515625 a 0.36653664,0.36653664 0 0 0 -0.7148437,0.08984 c 0,0 -0.3358736,4.608524 0.4980469,8.611328 0.1823816,0.875433 -0.063171,1.491994 -0.5605469,2.023437 C 7.2428586,43.771677 6.467813,44.185015 5.6503906,44.480469 4.28802,44.972892 3.2645057,45.033647 2.8183594,45.076172 2.9582308,44.585332 4.0130948,40.848588 5.828125,35.845703 7.7579309,30.526455 10.367962,24.375028 12.955078,21.158203 17.456201,15.561499 24.798564,9.4132921 31.943359,6.7109375 Z"
           id="path27" /></g><path
         style="stroke-width:2.41918;stroke-linecap:round;stroke-linejoin:round;stroke:none"
         d="m 54.41663,47.225868 c 0,0 -2.376067,0.432008 -3.024086,2.592065 -0.64802,2.160056 1.080028,4.104114 1.080028,4.104114 0,0 0.86403,0.64802 1.944058,-2.376067 1.080028,-3.024073 0,-4.320112 0,-4.320112 z"
         id="path12" /><g
         id="path14"
         style="stroke:none"><path
           style="stroke-linecap:round;stroke-linejoin:round;stroke:none"
           d="m 64.114098,30.610429 c 0,0 -1.27302,3.1247 0.63651,2.54605 1.90954,-0.57865 1.27303,-1.9674 0.69438,-2.141 -0.57865,-0.17359 -1.33089,-0.40505 -1.33089,-0.40505 z"
           id="path28" /><path
           style="stroke-linecap:round;stroke-linejoin:round;stroke:none"
           d="m 64.222656,30.259766 a 0.36653616,0.36653616 0 0 0 -0.447265,0.21289 c 0,0 -0.33551,0.799096 -0.423829,1.585938 -0.04416,0.393421 -0.05045,0.807716 0.195313,1.15625 0.12288,0.174267 0.324579,0.310662 0.554687,0.357422 0.230109,0.04676 0.47877,0.01951 0.75586,-0.06445 1.043465,-0.316202 1.529014,-0.955434 1.539062,-1.568359 0.01005,-0.612925 -0.334162,-1.121924 -0.845703,-1.275391 -0.5765,-0.172945 -1.328125,-0.404296 -1.328125,-0.404296 z m 0.144531,0.810546 c 0.247757,0.076 0.549094,0.16981 0.972657,0.296875 0.06711,0.02013 0.328637,0.291035 0.324218,0.560547 -0.0044,0.269513 -0.153455,0.616459 -1.019531,0.878907 -0.200292,0.0607 -0.330715,0.06024 -0.396484,0.04687 -0.06577,-0.01337 -0.07721,-0.0252 -0.103516,-0.0625 -0.0526,-0.0746 -0.09986,-0.334968 -0.06445,-0.650391 0.05443,-0.484902 0.201581,-0.836112 0.287109,-1.070313 z"
           id="path29" /></g><g
         id="path15"
         style="stroke:none"><path
           style="stroke-linecap:round;stroke-linejoin:round;stroke:none"
           d="m 64.229828,34.198039 c 0,0 0.69438,1.67808 -0.34719,3.00897 -1.04156,1.33089 -5.26569,3.18256 -5.20782,3.70334 0.0579,0.52078 2.89323,0.69438 4.97636,-0.63651 2.08313,-1.33089 1.85167,-3.58761 1.9674,-4.22413 0.11573,-0.63651 -0.52078,-2.48818 -1.38875,-1.85167 z"
           id="path30" /><path
           style="stroke-linecap:round;stroke-linejoin:round;stroke:none"
           d="m 64.998047,33.804687 c -0.2834,-0.148108 -0.681822,-0.124215 -0.984375,0.09766 a 0.36653616,0.36653616 0 0 0 -0.123047,0.435547 c 0,0 0.603819,1.491695 -0.296875,2.642578 -0.42342,0.54104 -1.737763,1.373617 -2.914063,2.066406 -0.588149,0.346395 -1.144277,0.669029 -1.564453,0.947266 -0.210087,0.139118 -0.384514,0.264729 -0.523437,0.392578 -0.06946,0.06392 -0.131558,0.127088 -0.185547,0.208984 -0.05399,0.0819 -0.113491,0.195392 -0.0957,0.355469 0.02526,0.227231 0.182804,0.367967 0.322265,0.451172 0.139462,0.0832 0.292887,0.133964 0.470704,0.173828 0.355632,0.07973 0.807095,0.1067 1.322265,0.07617 1.03034,-0.06106 2.310644,-0.360359 3.421875,-1.070313 1.125955,-0.719361 1.6457,-1.7153 1.878906,-2.585937 0.116604,-0.435319 0.165305,-0.840907 0.19336,-1.173828 0.02805,-0.332922 0.04033,-0.606556 0.05859,-0.707032 0.09021,-0.496145 -0.06919,-1.106759 -0.363282,-1.644531 -0.147046,-0.268886 -0.333788,-0.517907 -0.617187,-0.666016 z m -0.34375,0.650391 c 0.0019,10e-4 0.0038,-0.0011 0.0059,0 0.07645,0.03995 0.204436,0.173156 0.310547,0.367188 0.212222,0.388063 0.312631,1.021745 0.287109,1.162109 -0.0396,0.217785 -0.04217,0.464566 -0.06836,0.775391 -0.02619,0.310824 -0.06953,0.672087 -0.169922,1.046875 -0.200779,0.749575 -0.609231,1.546674 -1.566406,2.158203 -0.971899,0.620936 -2.14773,0.900407 -3.070313,0.955078 -0.461291,0.02734 -0.861766,-0.0028 -1.11914,-0.06055 -0.02938,-0.0066 -0.03321,-0.01229 -0.05859,-0.01953 0.08756,-0.07021 0.172858,-0.140612 0.314453,-0.234375 0.388122,-0.257011 0.942359,-0.579753 1.533203,-0.927735 1.181689,-0.695963 2.501001,-1.454291 3.119141,-2.24414 0.973399,-1.243783 0.640148,-2.492982 0.482422,-2.978516 z"
           id="path31" /></g><g
         id="path16"
         style="stroke:none"><path
           style="stroke-linecap:round;stroke-linejoin:round;stroke:none"
           d="m 57.633248,42.588429 c 0,0 0.52079,0.40505 0.63652,1.15729 0.11572,0.75224 0.69437,0.86797 1.04156,-0.17359 0.34719,-1.04157 -0.0579,-1.67808 -0.8101,-1.67808 -0.75225,0 -0.86798,0.69438 -0.86798,0.69438 z"
           id="path32" /><path
           style="stroke-linecap:round;stroke-linejoin:round;stroke:none"
           d="m 58.501953,41.527344 c -0.488893,0 -0.84172,0.256442 -1.015625,0.501953 -0.173904,0.245511 -0.214844,0.498047 -0.214844,0.498047 a 0.36653616,0.36653616 0 0 0 0.136719,0.349609 c 0,0 0.40639,0.315369 0.5,0.923828 0.03569,0.232032 0.105708,0.43607 0.232422,0.603516 0.126714,0.167446 0.340534,0.301384 0.576172,0.292969 0.235638,-0.0084 0.434114,-0.141713 0.582031,-0.316407 0.147918,-0.174694 0.262275,-0.402063 0.359375,-0.693359 0.1942,-0.5826 0.199599,-1.105685 -0.01563,-1.515625 -0.215224,-0.40994 -0.661148,-0.644531 -1.140625,-0.644531 z m 0,0.732422 c 0.272723,0 0.403614,0.0852 0.492188,0.253906 0.08857,0.168707 0.12174,0.484389 -0.03125,0.943359 -0.0765,0.229484 -0.162767,0.378134 -0.22461,0.451172 -0.02924,0.03453 -0.01231,0.0212 -0.02148,0.02734 -0.02591,-0.0403 -0.06387,-0.115357 -0.08398,-0.246094 -0.108861,-0.707594 -0.441674,-0.936571 -0.613281,-1.097656 0.0094,-0.03347 0.01322,-0.06635 0.06445,-0.138672 0.07202,-0.101679 0.154612,-0.193359 0.417969,-0.193359 z"
           id="path33" /></g><g
         id="path17"
         style="stroke:none"><path
           style="stroke-linecap:round;stroke-linejoin:round;stroke:none"
           d="m 50.947868,56.783459 c 0,0 -0.76556,2.65394 0,3.31743 0.76556,0.66349 2.19462,0.51038 2.65396,1.42906 0.45933,0.91867 0.91867,3.21535 1.378,1.63319 0.45935,-1.58216 0,-2.8581 -1.07178,-3.41951 -1.07179,-0.56141 -1.12283,-1.42905 -1.37801,-2.19461 -0.25519,-0.76556 -0.86764,-1.73528 -1.58217,-0.76556 z"
           id="path34" /><path
           style="stroke-linecap:round;stroke-linejoin:round;stroke:none"
           d="m 51.394531,56.070312 c -0.268864,0.05563 -0.500054,0.240587 -0.707031,0.521485 a 0.32329034,0.32329034 0 0 0 -0.05078,0.101562 c 0,0 -0.19734,0.682606 -0.296875,1.458985 -0.04977,0.388189 -0.07724,0.801052 -0.03711,1.183593 0.04013,0.382542 0.141454,0.756576 0.433594,1.009766 0.467308,0.405003 1.062367,0.52718 1.556641,0.681641 0.494273,0.154461 0.853041,0.313505 1.019531,0.646484 0.200753,0.40151 0.433595,1.209149 0.685547,1.748047 0.06299,0.134724 0.127399,0.254439 0.210937,0.361328 0.08354,0.106889 0.199305,0.231207 0.40625,0.244141 0.206946,0.01293 0.373764,-0.128897 0.462891,-0.263672 0.08913,-0.134775 0.150544,-0.295014 0.212891,-0.509766 0.488413,-1.682265 -0.01594,-3.159667 -1.232422,-3.796875 -0.47713,-0.249923 -0.697169,-0.536066 -0.853516,-0.871094 -0.156346,-0.335027 -0.23201,-0.72727 -0.369141,-1.138671 -0.13918,-0.417535 -0.350823,-0.889996 -0.724609,-1.185547 -0.186893,-0.147776 -0.447932,-0.247034 -0.716798,-0.191407 z m 0.13086,0.632813 c 0.05491,-0.01136 0.09811,-0.0027 0.185546,0.06641 0.174869,0.138269 0.395709,0.532835 0.511719,0.88086 0.11805,0.354158 0.195569,0.778449 0.396485,1.208984 0.200916,0.430535 0.544011,0.858435 1.138671,1.169922 0.927076,0.485612 1.342396,1.560914 0.91211,3.042969 -0.02087,0.07188 -0.03341,0.08259 -0.05273,0.132812 -0.01237,-0.024 -0.02045,-0.03131 -0.0332,-0.05859 -0.207383,-0.443569 -0.434782,-1.244558 -0.693359,-1.761718 -0.29285,-0.585701 -0.877815,-0.80813 -1.404297,-0.972657 -0.526482,-0.164526 -1.02792,-0.2962 -1.326172,-0.554687 -0.09064,-0.07856 -0.181246,-0.286212 -0.21289,-0.587891 -0.03164,-0.301678 -0.01272,-0.676924 0.0332,-1.035156 0.08697,-0.678338 0.243804,-1.225611 0.261718,-1.289063 0.12701,-0.155426 0.234128,-0.232033 0.283204,-0.242187 z"
           id="path35" /></g><g
         id="path18"
         style="stroke:none"><path
           style="stroke-linecap:round;stroke-linejoin:round;stroke:none"
           d="m 55.318668,64.461289 c 0,0 -1.04157,0.69438 -2.02527,1.09943 -0.9837,0.40505 0,2.37245 1.21516,1.62021 1.21516,-0.75224 2.60391,-3.00897 0.81011,-2.71964 z"
           id="path36" /><path
           style="stroke-linecap:round;stroke-linejoin:round;stroke:none"
           d="m 55.259766,64.099609 a 0.36653616,0.36653616 0 0 0 -0.144532,0.05664 c 0,0 -1.029376,0.682825 -1.960937,1.066406 -0.362399,0.149222 -0.581727,0.490916 -0.621094,0.824219 -0.03937,0.333303 0.05542,0.663616 0.230469,0.949219 0.175047,0.285602 0.439483,0.533755 0.785156,0.652343 0.345673,0.118589 0.768946,0.08109 1.152344,-0.15625 0.693915,-0.429565 1.358609,-1.19625 1.675781,-1.914062 0.158586,-0.358906 0.265587,-0.739752 0.0625,-1.099609 -0.101543,-0.179929 -0.291893,-0.312008 -0.496094,-0.367188 -0.2042,-0.05518 -0.426067,-0.05326 -0.683593,-0.01172 z m 0.49414,0.71875 c 0.05845,0.01579 0.04535,0.01682 0.04687,0.01953 0.0031,0.0054 0.02252,0.182172 -0.09375,0.445312 -0.232542,0.526281 -0.86938,1.263263 -1.390625,1.585938 -0.224181,0.138778 -0.379503,0.137326 -0.529297,0.08594 -0.149794,-0.05139 -0.298626,-0.178948 -0.398437,-0.341797 -0.09981,-0.162849 -0.141835,-0.354471 -0.126953,-0.480469 0.01488,-0.125997 0.04242,-0.179118 0.171875,-0.232421 0.984403,-0.40534 1.887484,-1.013726 1.984375,-1.078125 0.157656,-0.01992 0.283847,-0.01798 0.335937,-0.0039 z"
           id="path37" /></g><path
         style="stroke-width:0.732999;stroke-linecap:round;stroke-linejoin:round;stroke:none"
         d="m 68.627548,5.3235486 c 0,0 -2.77751,3.1247 -0.34719,4.05053 2.43032,0.9258404 7.48851,4.1955504 8.64581,5.3528404 1.15729,1.1573 2.0013,0.86847 2.0013,0.86847 0,0 0.009,-0.25503 -0.13481,-0.82123 -0.31091,-1.226 -1.6245,-3.27661 -2.29551,-3.77987 -0.92583,-0.69438 -1.27303,-2.6617704 -1.27303,-2.6617704 z"
         id="path19"
         sodipodi:nodetypes="csscsscc" /><path
         style="stroke-width:0.732999;stroke-linecap:round;stroke-linejoin:round;stroke:none"
         d="m 28.218088,65.773889 c 0,0 3.92799,6.87398 5.89198,8.67431 1.964,1.80033 3.35516,1.55483 3.35516,1.55483 0,0 -1.14566,-3.60066 -2.29132,-4.50082 -1.14567,-0.90016 -2.94599,-2.94599 -3.84616,-3.68249 -0.90016,-0.73649 -2.61866,-3.19149 -3.10966,-2.04583 z"
         id="path20" /><path
         style="stroke-width:0.732999;stroke-linecap:round;stroke-linejoin:round;stroke:none"
         d="m 47.203358,66.755889 c 0,0 -2.29132,2.20949 -3.76432,2.78232 -1.47299,0.57284 -3.68248,0.491 -3.76432,1.39117 -0.0818,0.90016 3.43699,5.40098 6.21932,4.25532 2.78232,-1.14567 2.04582,-4.17349 2.20949,-4.99182 0.16367,-0.81833 1.47299,-1.80033 1.30933,-2.70049 -0.16367,-0.90017 -0.491,-1.7185 -2.2095,-0.7365 z"
         id="path21" /><path
         style="stroke-width:0.732999;stroke-linecap:round;stroke-linejoin:round;stroke:none"
         d="m 41.966048,77.394189 c 0,0 7.11947,1.30933 9.73813,1.14566 2.61866,-0.16366 9.98364,2.2095 0.7365,1.7185 -9.24713,-0.491 -16.03928,-2.86416 -10.47463,-2.86416 z"
         id="path22" /><path
         style="stroke-width:0.732999;stroke-linecap:round;stroke-linejoin:round;stroke:none"
         d="m 50.458028,72.446619 c 0,0 -0.57865,1.85167 0,3.47188 0.57865,1.62021 3.35615,0.57865 4.05053,-0.57865 0.69437,-1.15729 -2.43032,-4.16625 -4.05053,-2.89323 z"
         id="path23" /><path
         style="stroke-width:0.732999;stroke-linecap:round;stroke-linejoin:round;stroke:none"
         d="m 60.410758,72.909539 c 0,0 3.24042,-0.34719 7.40668,0.23146 4.16626,0.57864 11.34149,2.89323 7.63814,3.70334 -3.70334,0.8101 -6.36511,1.27302 -8.10106,0.23146 -1.73594,-1.04157 -2.19885,-2.19886 -3.47188,-2.31459 -1.27302,-0.11573 -5.43928,-1.04157 -3.47188,-1.85167 z"
         id="path24" /><path
         style="stroke-width:0.732999;stroke-linecap:round;stroke-linejoin:round;stroke:none"
         d="m 56.360228,82.515079 c 0,0 -4.51345,3.35615 -7.29095,4.05053 -2.77751,0.69437 -5.0921,-0.11573 -3.24043,4.62918 1.85167,4.744899 2.43032,3.471879 9.37408,1.73594 6.94377,-1.73594 7.17523,0.57864 9.95274,0.69437 2.7775,0.11573 6.36511,-2.31459 8.10106,-3.58761 1.73594,-1.27302 1.50448,-4.62918 -0.34719,-5.9022 -1.85167,-1.27302 -2.31459,-5.20782 -3.24043,-5.09209 -0.92583,0.11572 -0.34719,5.20782 -1.73594,5.09209 -1.38875,-0.11573 -4.7449,-0.57865 -3.58761,-2.43032 1.15729,-1.85167 -3.70334,-0.8101 -4.28199,-0.34719 -0.57865,0.46292 -1.62021,2.19886 -2.08313,2.08313 -0.46292,-0.11572 -0.23146,-1.27302 -1.62021,-0.92583 z"
         id="path25" /><path
         style="stroke-linecap:round;stroke-linejoin:round;stroke:none"
         d="m 50.306641,-1.8769531 c -28.626441,0 -51.8867191,23.2602781 -51.8867191,51.8867191 0,28.62644 23.2602781,51.886714 51.8867191,51.886714 28.62644,0 51.884769,-23.260274 51.884769,-51.886714 0,-28.626441 -23.258329,-51.8867191 -51.884769,-51.8867191 z m 0,5 c 25.924239,0 46.884765,20.9624791 46.884765,46.8867191 0,25.924239 -20.960526,46.886718 -46.884765,46.886718 -25.92424,0 -46.8867191,-20.962479 -46.8867191,-46.886718 0,-25.92424 20.9624791,-46.8867191 46.8867191,-46.8867191 z"
         id="path1" /></g></g></svg>
