<?xml version="1.0" encoding="UTF-8" standalone="no"?>
<!-- Created with Inkscape (http://www.inkscape.org/) -->

<svg
   width="100mm"
   height="100mm"
   viewBox="0 0 100 100"
   version="1.1"
   id="svg1"
   fill="currentColor"
   sodipodi:docname="puzzle.svg"
   xml:space="preserve"
   inkscape:version="1.4-dev (1:1.4.0-dev+202403210151+2fe0648968)"
   xmlns:inkscape="http://www.inkscape.org/namespaces/inkscape"
   xmlns:sodipodi="http://sodipodi.sourceforge.net/DTD/sodipodi-0.dtd"
   xmlns="http://www.w3.org/2000/svg"
   xmlns:svg="http://www.w3.org/2000/svg"><sodipodi:namedview
     id="namedview1"
     pagecolor="#ffffff"
     bordercolor="#000000"
     borderopacity="0.25"
     inkscape:showpageshadow="2"
     inkscape:pageopacity="0.0"
     inkscape:pagecheckerboard="0"
     inkscape:deskcolor="#d1d1d1"
     inkscape:document-units="mm"
     inkscape:zoom="0.80830208"
     inkscape:cx="148.45935"
     inkscape:cy="290.11431"
     inkscape:window-width="1536"
     inkscape:window-height="832"
     inkscape:window-x="1128"
     inkscape:window-y="0"
     inkscape:window-maximized="1"
     inkscape:current-layer="svg1" /><defs
     id="defs1" /><path
     style="stroke-width:2.54725;stroke:none"
     d="M 37.185349,88.452536 C 32.234712,87.798019 22.097856,85.619181 21.57614,85.097473 c -0.23822,-0.238217 -0.246805,-0.188123 0.896299,-5.232476 1.824624,-8.051851 2.02369,-15.675831 0.501276,-19.198266 -1.062658,-2.458695 -2.653927,-3.309638 -4.980452,-2.663336 -0.417806,0.116053 -1.664127,0.790983 -2.769605,1.499817 -2.400994,1.539524 -3.76216,1.98492 -5.7268148,1.873908 C 7.9154346,61.287758 5.9563244,60.460962 4.5424184,59.286209 3.3833092,58.323157 1.9137915,55.975945 1.2639543,54.049624 0.77598731,52.603143 0.69251384,51.998737 0.69163495,49.905595 0.69075616,47.81035 0.77363102,47.207327 1.2632207,45.746568 c 1.4922824,-4.452426 4.9361862,-7.347929 8.7396083,-7.347929 1.726972,0 3.195371,0.530615 5.289735,1.911481 4.33647,2.859141 6.913465,2.033492 8.250976,-2.643549 0.834865,-2.919371 0.75537,-7.961729 -0.229482,-14.556349 -0.436482,-2.922683 -1.450257,-8.084307 -2.009545,-10.231554 -0.162158,-0.622571 -0.240971,-1.272308 -0.175149,-1.443862 0.104433,-0.272183 4.865132,-0.311917 37.371434,-0.311917 h 37.251739 l 0.220999,0.692547 c 0.121555,0.380904 0.462149,1.753753 0.756898,3.050778 1.923686,8.465095 2.902661,16.710693 2.481194,20.89837 -0.368397,3.660424 -1.216455,5.579509 -3.053778,6.910459 -1.563973,1.132936 -3.697926,0.798258 -6.232278,-0.977437 -1.757427,-1.231341 -2.812099,-1.737543 -4.112714,-1.973935 -4.467749,-0.812042 -8.516666,3.424883 -8.912969,9.326824 -0.303568,4.520905 1.768729,8.778546 5.07748,10.43195 1.088463,0.543912 1.553497,0.651213 2.814762,0.649476 1.756807,-0.0024 2.951499,-0.473229 5.11081,-2.014082 1.79103,-1.278051 2.634873,-1.606398 4.128422,-1.606398 2.832874,0 4.374094,2.154806 4.972112,6.951596 0.459617,3.686634 -0.30637,10.297457 -2.070986,17.873593 -0.812904,3.490092 -0.90531,3.728828 -1.536153,3.968668 -0.997526,0.379264 -6.476317,1.840704 -8.667141,2.311917 -7.619921,1.63893 -14.481985,1.682096 -17.583202,0.110572 -1.952477,-0.989393 -2.955931,-2.790764 -2.658702,-4.772818 0.167508,-1.117017 0.664085,-2.162926 1.87585,-3.950982 1.704408,-2.514985 2.068201,-4.704987 1.177539,-7.088681 -0.866631,-2.319387 -3.876136,-4.700154 -6.790236,-5.371643 -1.432257,-0.330029 -4.555027,-0.274384 -6.036434,0.107572 -3.641153,0.938798 -6.285254,3.472932 -6.973868,6.683823 -0.339984,1.585291 0.04088,3.042752 1.349058,5.162446 1.688678,2.736242 2.088206,3.662224 2.119996,4.91352 0.07197,2.832208 -1.509448,4.358791 -5.352835,5.167273 -2.096096,0.440921 -6.804358,0.385435 -10.671006,-0.125761 z"
     id="path31" /></svg>
