<?xml version="1.0" encoding="UTF-8" standalone="no"?>
<!-- Created with Inkscape (http://www.inkscape.org/) -->

<svg
   width="100mm"
   height="100mm"
   viewBox="0 0 100 100"
   version="1.1"
   id="svg1"
   xmlns="http://www.w3.org/2000/svg"
   xmlns:svg="http://www.w3.org/2000/svg"
   fill="currentColor">
  <defs
     id="defs1" />
  <g
     id="layer1">
    <path
       style="stroke-width:1.074;stroke-linecap:round;stroke-linejoin:round;stroke:none;stroke-dasharray:none"
       d="m 52.492216,33.735844 c 0,0 -1.272696,1.128226 -3.448399,3.968595 -2.175702,2.840369 -5.44251,7.557079 -9.965534,15.224131 C 26.923821,73.531798 27.334012,94.510712 27.334012,94.510712 a 2.6848841,2.6848841 0 0 0 2.733128,2.63664 2.6848841,2.6848841 0 0 0 2.63664,-2.733128 c 0,0 -0.31885,-19.570569 10.999635,-38.75672 4.437604,-7.522255 7.594897,-12.066036 9.602656,-14.687156 2.007759,-2.621119 2.678592,-3.156836 2.678592,-3.156836 a 2.6848841,2.6848841 0 0 0 0.293658,-3.784008 2.6848841,2.6848841 0 0 0 -3.786105,-0.29366 z"
       id="path1" />
    <g
       id="path2"
       transform="matrix(1.0739536,0,0,1.0739536,-1.5683451,-2.868774)"
       style="stroke:none;stroke-width:1.00004321;stroke-dasharray:none">
      <path
         id="path11"
         style="stroke-linecap:round;stroke-linejoin:round;stroke:none;stroke-width:1.00004321;stroke-dasharray:none"
         d="m 17.451131,7.2977458 c -0.495157,0.00448 -0.768945,0.014469 -0.768945,0.014469 0,0 2.075236,16.9158382 12.016321,23.4760872 8.977793,5.92456 23.703979,4.111377 23.703979,4.111377 0,0 -1.554314,-13.907088 -10.096024,-21.27157 C 35.224494,7.5221852 20.917234,7.2663654 17.451131,7.2977458 Z m 8.341093,4.7531982 a 1.5,1.5 0 0 1 0.555522,0.183451 c 6.450901,3.658357 15.124635,9.426768 20.413741,16.822229 a 1.5,1.5 0 0 1 -0.345716,2.093929 1.5,1.5 0 0 1 -2.093412,-0.347782 C 39.516692,24.083275 31.133758,18.397343 24.867216,14.843538 a 1.5,1.5 0 0 1 -0.564307,-2.044836 1.5,1.5 0 0 1 0.905888,-0.704867 1.5,1.5 0 0 1 0.583427,-0.04289 z" />
      <path
         style="stroke-linecap:round;stroke-linejoin:round;stroke:none;stroke-width:1.00004321;stroke-dasharray:none"
         d="m 16.607422,5.3144531 a 2.0002,2.0002 0 0 0 -1.910156,2.2421875 c 0,0 0.541329,4.4317234 2.376953,9.6933594 1.835624,5.261636 4.946707,11.526876 10.523437,15.207031 4.986761,3.290827 11.209575,4.307087 16.199219,4.605469 4.989644,0.298382 8.849609,-0.177734 8.849609,-0.177734 a 2.0002,2.0002 0 0 0 1.744141,-2.207032 c 0,0 -1.385361,-14.465199 -10.779297,-22.564453 C 38.999938,8.1374372 32.291319,6.6011207 26.71875,5.8710937 21.146181,5.1410668 16.607422,5.3144531 16.607422,5.3144531 Z M 19.0625,9.3164063 c 1.726586,0.024542 4.095528,0.1211242 7.136719,0.5195312 C 31.415318,10.519266 37.517714,12.140224 41,15.142578 c 5.895637,5.083094 8.256868,13.997524 9.050781,17.935547 -1.468139,0.08597 -3.48413,0.143455 -6.013672,-0.0078 C 39.419324,32.794168 33.791814,31.752874 29.800781,29.119141 25.436427,26.239048 22.538828,20.768021 20.851562,15.931641 19.888431,13.170919 19.378696,10.951018 19.0625,9.3164063 Z"
         id="path12" />
    </g>
    <g
       id="path2-5"
       transform="matrix(1.0739536,0,0,1.0739536,-1.5683451,-2.868774)"
       style="stroke:none;stroke-width:1.00004321;stroke-dasharray:none">
      <path
         id="path9"
         style="stroke-linecap:round;stroke-linejoin:round;stroke:none;stroke-width:1.00004321;stroke-dasharray:none"
         d="m 55.013696,34.85472 c -1.449663,-4.86e-4 -2.320788,0.05684 -2.320788,0.05684 0,0 3.169411,16.867856 10.995711,22.159888 7.98749,5.401025 23.519495,3.319177 23.519495,3.319177 0,0 -2.838966,-15.683673 -11.42876,-20.870561 C 68.918268,35.377049 59.362685,34.856179 55.013696,34.85472 Z m 4.350639,5.139221 a 1.5,1.5 0 0 1 0.762744,0.148828 c 6.081052,2.9626 12.471465,6.073396 20.062342,14.618746 A 1.5,1.5 0 0 1 80.064364,56.880766 1.5,1.5 0 0 1 77.94718,56.754159 C 70.664242,48.555468 64.900459,45.80576 58.812431,42.839762 A 1.5,1.5 0 0 1 58.121,40.8342 a 1.5,1.5 0 0 1 0.859379,-0.761711 1.5,1.5 0 0 1 0.383956,-0.07855 z" />
      <path
         style="stroke-linecap:round;stroke-linejoin:round;stroke:none;stroke-width:1.00004321;stroke-dasharray:none"
         d="m 54.945312,32.832031 c -1.492214,0.01317 -2.382812,0.08398 -2.382812,0.08398 a 2.0002,2.0002 0 0 0 -1.835938,2.365234 c 0,0 0.818932,4.362129 2.650391,9.408203 1.83146,5.046075 4.565218,10.910901 9.191406,14.039063 4.590838,3.104258 10.755612,3.86718 15.8125,4.027343 5.056889,0.160163 9.09375,-0.382812 9.09375,-0.382812 a 2.0002,2.0002 0 0 0 1.701172,-2.337891 c 0,0 -0.738701,-4.098495 -2.597656,-8.861328 C 84.71917,46.410995 81.787512,40.812721 76.8125,37.808594 69.311494,33.279163 59.421955,32.792506 54.945312,32.832031 Z m 0.271485,4.16211 c 3.147222,-0.05115 12.498551,-0.0072 19.529297,4.238281 3.614782,2.182761 6.397634,7.018885 8.105468,11.394531 0.954698,2.446033 1.527224,4.478891 1.900391,5.986328 -1.539575,0.119839 -3.639903,0.227013 -6.244141,0.144531 -4.705874,-0.149045 -10.302566,-1.046982 -13.699218,-3.34375 -3.200112,-2.163869 -5.962058,-7.378919 -7.671875,-12.089843 -0.91092,-2.509785 -1.517468,-4.702233 -1.919922,-6.330078 z"
         id="path10" />
    </g>
  </g>
</svg>
