<?xml version="1.0" encoding="UTF-8" standalone="no"?>
<!-- Created with Inkscape (http://www.inkscape.org/) -->

<svg
   width="100mm"
   height="100mm"
   viewBox="0 0 100 100"
   version="1.1"
   id="svg1"
   xmlns="http://www.w3.org/2000/svg"
   xmlns:svg="http://www.w3.org/2000/svg"
   fill="currentColor">
  <defs
     id="defs1" />
  <g
     id="layer1">
    <g
       id="path1"
       style="stroke:none">
      <path
         style="stroke-linecap:round;stroke-linejoin:round;stroke:none"
         d="m 7.4776391,62.30028 1.375e-4,9.926031 44.7685204,14.889047 v -9.926032 z"
         id="path29" />
      <path
         style="stroke-linecap:round;stroke-linejoin:round;stroke:none"
         d="m 7.7929687,61.351562 a 1.0001,1.0001 0 0 0 -1.3144531,0.949219 v 9.925781 a 1.0001,1.0001 0 0 0 0.6835938,0.949219 L 51.931641,88.064453 a 1.0001,1.0001 0 0 0 1.314453,-0.949219 V 77.189453 A 1.0001,1.0001 0 0 0 52.5625,76.240234 Z M 8.4785156,63.6875 51.246094,77.910156 v 7.81836 L 8.4785156,71.505859 Z"
         id="path30" />
    </g>
    <g
       id="path2"
       style="stroke:none">
      <path
         style="stroke-linecap:round;stroke-linejoin:round;stroke:none"
         d="M 7.4776391,62.300279 21.337422,57.906546"
         id="path27" />
      <path
         style="stroke-linecap:round;stroke-linejoin:round;stroke:none"
         d="M 21.035156,56.953125 7.1757812,61.347656 a 1,1 0 0 0 -0.6523437,1.253906 1,1 0 0 0 1.2558594,0.652344 L 21.638672,58.859375 a 1,1 0 0 0 0.652344,-1.255859 1,1 0 0 0 -1.25586,-0.650391 z"
         id="path28" />
    </g>
    <g
       id="path2-8"
       style="stroke:none">
      <path
         style="stroke-linecap:round;stroke-linejoin:round;stroke:none"
         d="M 52.246297,77.189326 66.106081,72.795592"
         id="path25" />
      <path
         style="stroke-linecap:round;stroke-linejoin:round;stroke:none"
         d="m 65.804687,71.841797 -13.861328,4.394531 a 1,1 0 0 0 -0.65039,1.255859 1,1 0 0 0 1.255859,0.650391 l 13.859375,-4.394531 a 1,1 0 0 0 0.650391,-1.253906 1,1 0 0 0 -1.253907,-0.652344 z"
         id="path26" />
    </g>
    <g
       id="path1-6"
       style="stroke:none">
      <path
         style="stroke-linecap:round;stroke-linejoin:round;stroke:none"
         d="m 21.337425,47.980514 1.38e-4,9.926031 44.768518,14.889047 V 62.86956 Z"
         id="path23" />
      <path
         style="stroke-linecap:round;stroke-linejoin:round;stroke:none"
         d="m 21.652344,47.03125 a 1.0001,1.0001 0 0 0 -1.314453,0.949219 v 9.925781 a 1.0001,1.0001 0 0 0 0.683593,0.949219 l 44.769532,14.888672 a 1.0001,1.0001 0 0 0 1.314453,-0.949219 v -9.925781 a 1.0001,1.0001 0 0 0 -0.683594,-0.949219 z m 0.685547,2.335937 42.767578,14.22461 v 7.818359 L 22.337891,57.185547 Z"
         id="path24" />
    </g>
    <g
       id="path2-2"
       style="stroke:none">
      <path
         style="stroke-linecap:round;stroke-linejoin:round;stroke:none"
         d="M 21.337425,47.980512 35.197208,43.586779"
         id="path21" />
      <path
         style="stroke-linecap:round;stroke-linejoin:round;stroke:none"
         d="m 34.894531,42.632812 -13.859375,4.394532 a 1,1 0 0 0 -0.65039,1.255859 1,1 0 0 0 1.253906,0.650391 L 35.5,44.539062 a 1,1 0 0 0 0.650391,-1.253906 1,1 0 0 0 -1.25586,-0.652344 z"
         id="path22" />
    </g>
    <g
       id="path2-8-1"
       style="stroke:none">
      <path
         style="stroke-linecap:round;stroke-linejoin:round;stroke:none"
         d="M 66.106081,62.86956 79.965863,58.475826"
         id="path19" />
      <path
         style="stroke-linecap:round;stroke-linejoin:round;stroke:none"
         d="m 79.664062,57.523437 -13.859375,4.392579 a 1,1 0 0 0 -0.652343,1.255859 1,1 0 0 0 1.255859,0.650391 l 13.859375,-4.392579 a 1,1 0 0 0 0.652344,-1.255859 1,1 0 0 0 -1.25586,-0.650391 z"
         id="path20" />
    </g>
    <g
       id="path1-63"
       style="stroke:none">
      <path
         style="stroke-linecap:round;stroke-linejoin:round;stroke:none"
         d="m 35.197204,33.66075 1.37e-4,9.926029 44.768522,14.889047 v -9.926032 z"
         id="path17" />
      <path
         style="stroke-linecap:round;stroke-linejoin:round;stroke:none"
         d="m 35.513672,32.710937 a 1.0001,1.0001 0 0 0 -1.316406,0.949219 v 9.925781 a 1.0001,1.0001 0 0 0 0.683593,0.949219 l 44.769532,14.888672 a 1.0001,1.0001 0 0 0 1.316406,-0.947266 V 48.548828 A 1.0001,1.0001 0 0 0 80.28125,47.601562 Z m 0.683594,2.335938 42.769531,14.224609 v 7.81836 L 36.197266,42.865234 Z"
         id="path18" />
    </g>
    <g
       id="path2-7"
       style="stroke:none">
      <path
         style="stroke-linecap:round;stroke-linejoin:round;stroke:none"
         d="M 35.197204,33.66075 49.056987,29.267014"
         id="path15" />
      <path
         style="stroke-linecap:round;stroke-linejoin:round;stroke:none"
         d="m 48.753906,28.314453 -13.859375,4.392578 a 1,1 0 0 0 -0.65039,1.25586 1,1 0 0 0 1.255859,0.65039 l 13.859375,-4.392578 a 1,1 0 0 0 0.650391,-1.255859 1,1 0 0 0 -1.25586,-0.650391 z"
         id="path16" />
    </g>
    <g
       id="path2-8-9"
       style="stroke:none">
      <path
         style="stroke-linecap:round;stroke-linejoin:round;stroke:none"
         d="M 79.965863,48.549794 93.825645,44.156062"
         id="path13" />
      <path
         style="stroke-linecap:round;stroke-linejoin:round;stroke:none"
         d="m 93.523437,43.203125 -13.859375,4.392578 a 1,1 0 0 0 -0.652343,1.255859 1,1 0 0 0 1.255859,0.652344 l 13.859375,-4.394531 a 1,1 0 0 0 0.652344,-1.255859 1,1 0 0 0 -1.25586,-0.650391 z"
         id="path14" />
    </g>
    <g
       id="path1-1"
       style="stroke:none">
      <path
         style="stroke-linecap:round;stroke-linejoin:round;stroke:none"
         d="m 49.056987,19.340983 1.36e-4,9.926032 44.768522,14.889047 v -9.926033 z"
         id="path11" />
      <path
         style="stroke-linecap:round;stroke-linejoin:round;stroke:none"
         d="m 49.373047,18.392578 a 1.0001,1.0001 0 0 0 -1.316406,0.949219 v 9.925781 a 1.0001,1.0001 0 0 0 0.685546,0.949219 L 93.509766,45.105469 A 1.0001,1.0001 0 0 0 94.826172,44.15625 V 34.230469 A 1.0001,1.0001 0 0 0 94.140625,33.28125 Z m 0.683594,2.333984 42.769531,14.22461 v 7.818359 L 50.056641,28.544922 Z"
         id="path12" />
    </g>
    <g
       id="path2-70"
       style="stroke:none">
      <path
         style="stroke-linecap:round;stroke-linejoin:round;stroke:none"
         d="M 49.056987,19.340982 62.916769,14.947249"
         id="path9" />
      <path
         style="stroke-linecap:round;stroke-linejoin:round;stroke:none"
         d="m 62.615234,13.994141 -13.861328,4.394531 a 1,1 0 0 0 -0.65039,1.253906 1,1 0 0 0 1.255859,0.652344 L 63.21875,15.900391 a 1,1 0 0 0 0.650391,-1.25586 1,1 0 0 0 -1.253907,-0.65039 z"
         id="path10" />
    </g>
    <g
       id="path2-8-6"
       style="stroke:none">
      <path
         style="stroke-linecap:round;stroke-linejoin:round;stroke:none"
         d="m 93.825645,34.230029 4.54001,-1.439243"
         id="path7" />
      <path
         style="stroke-linecap:round;stroke-linejoin:round;stroke:none"
         d="m 98.0625,31.837891 -4.539063,1.439453 a 1,1 0 0 0 -0.65039,1.253906 1,1 0 0 0 1.253906,0.652344 l 4.541016,-1.439453 a 1,1 0 0 0 0.65039,-1.25586 1,1 0 0 0 -1.255859,-0.65039 z"
         id="path8" />
    </g>
    <g
       id="path2-8-6-1"
       style="stroke:none">
      <path
         style="stroke-linecap:round;stroke-linejoin:round;stroke:none"
         d="M 38.386518,91.509092 52.246297,87.115358"
         id="path5" />
      <path
         style="stroke-linecap:round;stroke-linejoin:round;stroke:none"
         d="m 51.943359,86.162109 -13.859375,4.394532 a 1,1 0 0 0 -0.65039,1.253906 1,1 0 0 0 1.255859,0.652344 l 13.859375,-4.394532 a 1,1 0 0 0 0.650391,-1.255859 1,1 0 0 0 -1.25586,-0.650391 z"
         id="path6" />
    </g>
    <g
       id="path2-8-6-1-9"
       style="stroke:none">
      <path
         style="stroke-linecap:round;stroke-linejoin:round;stroke:none"
         d="m 1.4168086,74.147718 6.060968,-1.921407"
         id="path3" />
      <path
         style="stroke-linecap:round;stroke-linejoin:round;stroke:none"
         d="M 7.1757812,71.273437 1.1152344,73.195312 A 1,1 0 0 0 0.46289063,74.449219 1,1 0 0 0 1.71875,75.101562 L 7.7792969,73.179687 A 1,1 0 0 0 8.4316406,71.923828 1,1 0 0 0 7.1757812,71.273437 Z"
         id="path4" />
    </g>
  </g>
</svg>
